<svg xmlns="http://www.w3.org/2000/svg" xmlns:xlink="http://www.w3.org/1999/xlink" width="144" height="144" viewBox="0 0 144 144">
  <defs>
    <clipPath id="clip-path">
      <path id="パス_176" data-name="パス 176" d="M103.613,111h91.768v58.885H103.613Zm0,0" transform="translate(-103.613 -111)"/>
    </clipPath>
    <clipPath id="clip-path-2">
      <path id="パス_189" data-name="パス 189" d="M106,101.051h89.037v34.385H106Zm0,0" transform="translate(-106 -101.051)"/>
    </clipPath>
    <clipPath id="clip-path-3">
      <path id="パス_192" data-name="パス 192" d="M88,217H198.887v8.71H88Zm0,0" transform="translate(-88 -217)"/>
    </clipPath>
  </defs>
  <g id="apple-touch-icon" transform="translate(-762 -2445)">
    <rect id="長方形_1130" data-name="長方形 1130" width="144" height="144" transform="translate(762 2445)" fill="rgba(255,255,255,0)"/>
    <g id="LOGO2" transform="translate(778.557 2474.027)">
      <g id="グループ_1833" data-name="グループ 1833" transform="translate(8.529 5.435)" clip-path="url(#clip-path)">
        <path id="パス_175" data-name="パス 175" d="M126,150.066c.489-.96.753-.99.732-1.937s-.288-2.639-.192-3.224c0,0-3.169.474-3.982-2.012,0,0,1.391-2.164,4.159-.034,0,0,.337.013.337-.58,0-1.517,1.556-1.432,1.972-1.7a2,2,0,0,1,1.961.068c.472.444,1.366-.064,2.13.847.482.576,2.714.57,6.563.5,9.517-.184,11.817,2.014,22.543-1.658,3.164-1.082,5.522-.358,7.1,1.317,1.216-.023,3.994.288,3.811,3.634-.237,4.276-1.007,11.081,1.391,12.058a1.051,1.051,0,0,1-.666-.03,1.791,1.791,0,0,0,.5.418.758.758,0,0,1,.416.627.888.888,0,0,0-.655-.318,1.018,1.018,0,0,1,.395,1.276s-.047-.6-.365-.8a1.922,1.922,0,0,1-.07.681.993.993,0,0,0-.252-.465s-.408,1.071.561,1.095c0,0-.866.723-1.146-1.148a.75.75,0,0,0-.4-.561,2.024,2.024,0,0,1,.06.873,7.965,7.965,0,0,0-.3-.918c-.111-.213-.09-.339-.015-.8a2.921,2.921,0,0,0-.2-1.34,20.3,20.3,0,0,1-.243-4.423c.058-2.134.228-7.688-1.562-8.016a13.812,13.812,0,0,1-.009,11.029c-1.169,2.635-.087,4.189.3,4.69s.171,1.34-.147,2.789c-.092.416-.2.992-.318,1.664a3.825,3.825,0,0,0,.512-1.681c1.174,1.114-2.031,4.449-.115,7.852,0,0,.073-4.048,1.536-5.138a5.646,5.646,0,0,0,.094,4.063,5.633,5.633,0,0,0,.094-4.063c1.466,1.09,1.536,5.138,1.536,5.138,1.918-3.4-1.287-6.738-.115-7.852.111,2.206,2.225,2.938,1.854,6.173,1.494-1.75,1.105-4.622,1.105-4.622a6.25,6.25,0,0,1-1.178,6.647c3.083-1.517,2.112-6.576,3.489-7.09a18.483,18.483,0,0,0,.1,4.148,8.461,8.461,0,0,0,.474-5.426c1.709,1.837.775,4.865.775,4.865,3.288-4.363,5.859-4.869,5.859-4.869a14.946,14.946,0,0,0-4.841,5.462A11.49,11.49,0,0,1,184,165.728a6.626,6.626,0,0,0-1.882,3.416c1.135-2.354,5.386-5.354,5.386-5.354A9.433,9.433,0,0,0,184.715,168a11.59,11.59,0,0,1,4.5-4.248,8.971,8.971,0,0,0-2.7,4.349,13.446,13.446,0,0,1,5.5-5.4,9.233,9.233,0,0,0-3.376,6.186,8.939,8.939,0,0,1,3.433-4.607c-2.471,2.7-2.07,4.694-2.07,4.694a4.076,4.076,0,0,1,1.048-2.383,4.237,4.237,0,0,0,.273,2.211,11.123,11.123,0,0,1,1.773-2.791,46.049,46.049,0,0,0,1.408-23.271c-5.595-3.935-17.889-14.3-19.3-15.1-1.622-.918-2.142.521-4.376-1.989s-9.444-9.866-12.169-12.192-3.26-1.85-4.332-1.575-2.142,1.927-.935,3.868.277,3.8-.888,5.418a2.666,2.666,0,0,0-.107,3.075c2.2,4.925,11.663,9.284,11.663,9.284,1.628.593,4.25,1.519.932,1.011-4.876-.749-8.832-3.538-12.214-6.09-3.749-2.829-5.386-.779-5.418.521s-.6,1.684-3.275-.107a51.628,51.628,0,0,1-6.6-6.013c-1.816-1.645-3.171-3.4-5.179-1.419-.738.73-1.53,1.852-1.189,2.612.474,1.056.674,1.914-.491,2.524s-4.82,1.148-4.652,3.794,5.234,5.14,5.234,5.14c-8.068-.467-6.235-7.784-12.95-2.415a109.746,109.746,0,0,1-13.458,8.441l0,0q-.16.7-.3,1.4a.007.007,0,0,1,0,0,46.039,46.039,0,0,0,1.445,23.083,11.183,11.183,0,0,1,1.771,2.791,4.236,4.236,0,0,0,.273-2.211,4.076,4.076,0,0,1,1.048,2.383s.4-2-2.068-4.694a8.951,8.951,0,0,1,3.433,4.607,9.244,9.244,0,0,0-3.376-6.186,13.446,13.446,0,0,1,5.5,5.4,8.985,8.985,0,0,0-2.7-4.349,11.59,11.59,0,0,1,4.5,4.248,9.433,9.433,0,0,0-2.787-4.206s4.253,3,5.386,5.354a6.632,6.632,0,0,0-1.88-3.416,11.49,11.49,0,0,1,2.415,1.541,14.939,14.939,0,0,0-4.844-5.462s2.571.506,5.859,4.869c0,0-.932-3.028.777-4.865a8.461,8.461,0,0,0,.474,5.426,18.566,18.566,0,0,0,.1-4.148c1.376.514.408,5.573,3.489,7.09a6.252,6.252,0,0,1-1.176-6.647s-.388,2.872,1.105,4.622c-.373-3.235,1.741-3.967,1.852-6.173,1.174,1.114-2.033,4.449-.115,7.852,0,0,.073-4.048,1.538-5.138a5.6,5.6,0,0,0,.213,4.317,5.59,5.59,0,0,0,.216-4.317c1.464,1.09,1.536,5.138,1.536,5.138,1.918-3.4-1.289-6.738-.115-7.852.111,2.206,2.225,2.938,1.852,6.173,1.494-1.75,1.107-4.622,1.107-4.622a6.25,6.25,0,0,1-1.178,6.647c3.081-1.517,2.112-6.576,3.489-7.09a18.566,18.566,0,0,0,.1,4.148,8.444,8.444,0,0,0,.474-5.426c1.709,1.837.777,4.865.777,4.865a18.7,18.7,0,0,1,3.094-3.294,9.594,9.594,0,0,0-.811-2.75,2.209,2.209,0,0,1-1.073-.843,1.982,1.982,0,0,0-1.28-.9,2.962,2.962,0,0,1-1.214-.941c-.141-.258-.42-.363-.672-.612s-.26.058-.348-1.733-1.265-3.536-2.317-3.44a17.957,17.957,0,0,0-2.39.12c-.585.177-.836-.228-1.028-.5s-.363-.126-.638-.179S125.512,151.028,126,150.066Zm0,0" transform="translate(-103.635 -111.291)" fill="#93c572" fill-rule="evenodd"/>
      </g>
      <path id="パス_177" data-name="パス 177" d="M193.714,190.729c-7.654,7.577-13.588.538-18.037,2.663a5.426,5.426,0,0,1,.7-2.366,6.122,6.122,0,0,0,.03-3.9,8.739,8.739,0,0,1-.593,3.83,4.749,4.749,0,0,0-.563,3.965,7.7,7.7,0,0,1-.408,3.638A7.375,7.375,0,0,1,175.8,198a8,8,0,0,0-1.139,1.208c-.017.068-.032.134-.043.194a8.025,8.025,0,0,0-.068.854,12.674,12.674,0,0,1,4.05-3.3,9.236,9.236,0,0,0-3.373,6.186,8.941,8.941,0,0,1,3.431-4.607c-2.471,2.7-2.068,4.694-2.068,4.694a4.076,4.076,0,0,1,1.048-2.383,4.236,4.236,0,0,0,.273,2.211,11.039,11.039,0,0,1,1.647-2.642,11.03,11.03,0,0,0-1.366-1.12,4.918,4.918,0,0,1,1.59.86,8.779,8.779,0,0,1,1.073-1.046,7.385,7.385,0,0,0-.832,1.235c.158.128.322.273.491.435a14.778,14.778,0,0,1,.937-1.246,8.731,8.731,0,0,0-1.664-2.1,8.289,8.289,0,0,1,2.021,1.7,8.288,8.288,0,0,1,2.021-1.7,8.729,8.729,0,0,0-1.664,2.1,14.338,14.338,0,0,1,.939,1.246c.166-.162.331-.307.491-.435a7.536,7.536,0,0,0-.834-1.235,8.872,8.872,0,0,1,1.075,1.046,4.9,4.9,0,0,1,1.588-.86,11.029,11.029,0,0,0-1.366,1.12,11.04,11.04,0,0,1,1.647,2.642,4.236,4.236,0,0,0,.273-2.211,4.076,4.076,0,0,1,1.048,2.383s.4-2-2.068-4.694a8.951,8.951,0,0,1,3.433,4.607,9.244,9.244,0,0,0-3.376-6.186,13.446,13.446,0,0,1,5.5,5.4,8.985,8.985,0,0,0-2.7-4.349,11.59,11.59,0,0,1,4.5,4.248,9.44,9.44,0,0,0-2.785-4.206,27.355,27.355,0,0,1,4.511,4.039l.173-.269s.032-.049.085-.141a6.243,6.243,0,0,0-1.265-1.692,8.509,8.509,0,0,1,1.664.969c.06-.119.124-.25.19-.386a14.492,14.492,0,0,0-4.282-4.5s2,.393,4.716,3.467a6.315,6.315,0,0,0,.418-1.944,3.507,3.507,0,0,0-.348-2.462,11.153,11.153,0,0,1-.875-3.691c-.132-1.08-1.73-3.4-3.463-2.322A2.659,2.659,0,0,1,193.714,190.729Zm0,0" transform="translate(-127.273 -140.106)" fill="#93c572" fill-rule="evenodd"/>
      <path id="パス_178" data-name="パス 178" d="M218.32,198.281c.337,1.133.427,3.011,1.193,4.468a1.811,1.811,0,0,0,.352-.489,6.431,6.431,0,0,1-.1-3.779c-.064-.551-.113-.928-.113-.928,1.863-1.509-.561-5.247.4-5.868a6.574,6.574,0,0,0,2.257-4.588,8.931,8.931,0,0,1-2.46,3.9c-1.888,1.026,1.1,4.822-.615,6.043A4.508,4.508,0,0,0,218.32,198.281Zm0,0" transform="translate(-147.134 -140.095)" fill="#93c572" fill-rule="evenodd"/>
      <path id="パス_179" data-name="パス 179" d="M216.641,211.667a16.438,16.438,0,0,0,.164-2.108c-.181.361-.363.738-.536,1.118A7.615,7.615,0,0,0,216.641,211.667Zm0,0" transform="translate(-146.204 -150.287)" fill="#93c572" fill-rule="evenodd"/>
      <path id="パス_180" data-name="パス 180" d="M165.625,211.858c0-.277,0-.617-.006-1a6.65,6.65,0,0,0-1.767,3.305A9.46,9.46,0,0,1,165.625,211.858Zm0,0" transform="translate(-122.418 -150.878)" fill="#93c572" fill-rule="evenodd"/>
      <path id="パス_181" data-name="パス 181" d="M162.875,210.885a11.894,11.894,0,0,1,2.3-1.491c-.017-.493-.051-1.048-.117-1.628A16.664,16.664,0,0,0,162.875,210.885Zm0,0" transform="translate(-121.975 -149.474)" fill="#93c572" fill-rule="evenodd"/>
      <path id="パス_182" data-name="パス 182" d="M170.42,210.148a9.5,9.5,0,0,0-.606.973c-.013.226-.026.448-.041.651.2-.267.405-.514.608-.745C170.409,210.68,170.424,210.373,170.42,210.148Zm0,0" transform="translate(-125.105 -150.555)" fill="#93c572" fill-rule="evenodd"/>
      <path id="パス_183" data-name="パス 183" d="M169.8,207.692c.179-.154.354-.3.523-.435-.107-.666-.346-1.6-.518-2.452-.047.041-.1.081-.147.124.032.367.085.811.169,1.327C169.821,206.256,169.819,206.906,169.8,207.692Zm0,0" transform="translate(-125.051 -148.13)" fill="#93c572" fill-rule="evenodd"/>
      <path id="パス_184" data-name="パス 184" d="M169.588,203.58l.113-.062c-.058-.32-.1-.619-.126-.881A7.471,7.471,0,0,0,169.588,203.58Zm0,0" transform="translate(-125.012 -147.146)" fill="#93c572" fill-rule="evenodd"/>
      <path id="パス_185" data-name="パス 185" d="M187.508,211.2a5.909,5.909,0,0,0-.395,1.494c.132.164.262.341.395.529.132-.188.265-.365.395-.529A5.908,5.908,0,0,0,187.508,211.2Zm0,0" transform="translate(-132.974 -151.034)" fill="#93c572" fill-rule="evenodd"/>
      <path id="パス_186" data-name="パス 186" d="M184.039,212.442c-.128-.156-.267-.316-.414-.474a7.68,7.68,0,0,0-.738,2.629A17.708,17.708,0,0,1,184.039,212.442Zm0,0" transform="translate(-131.056 -151.381)" fill="#93c572" fill-rule="evenodd"/>
      <path id="パス_187" data-name="パス 187" d="M190.676,212.442a17.708,17.708,0,0,1,1.152,2.155,7.643,7.643,0,0,0-.736-2.629C190.943,212.127,190.8,212.287,190.676,212.442Zm0,0" transform="translate(-134.59 -151.381)" fill="#93c572" fill-rule="evenodd"/>
      <g id="グループ_1834" data-name="グループ 1834" transform="translate(9.832 0)" clip-path="url(#clip-path-2)">
        <path id="パス_188" data-name="パス 188" d="M106.777,134.465c5.2-1.976,21.792-17.913,25.366-20.953,3.4-2.891,5.708-.429,7.039.781s4.914,3.61,4.914,3.61l-2.772-3s.553-.414,6.551-6.013,7.959-5.232,9.551-4.957,10.716,8.78,18.858,15.756c7.521,6.446,17.5,14.247,18.975,15.4a45.882,45.882,0,0,0-88.482-.625Zm0,0" transform="translate(-106.353 -101.051)" fill="#93c572" fill-rule="evenodd"/>
      </g>
      <path id="パス_190" data-name="パス 190" d="M276.191,228.38a30.092,30.092,0,0,0-7.835-1.617c-.551-.043-.551-.918,0-.851a25.807,25.807,0,0,1,8.055,1.987C276.676,228.009,276.477,228.489,276.191,228.38Zm0,0" transform="translate(-169.651 -157.706)" fill="#93c572"/>
      <g id="グループ_1835" data-name="グループ 1835" transform="translate(0 63.336)" clip-path="url(#clip-path-3)">
        <path id="パス_191" data-name="パス 191" d="M90.3,217.95c1.739,2.62,4.8,4,7.769,4.805a40.073,40.073,0,0,0,10.805,1.2c7.526-.066,15.1-1.18,22.579-1.965,15.295-1.6,30.677-3.277,46.08-3.058a99.792,99.792,0,0,1,10.257.568c7.7,1.092,10.517,3.429,10.694,3.58s.352.307.506.459a.263.263,0,0,1-.265.437,56.336,56.336,0,0,0-9.418-2.6,76.514,76.514,0,0,0-10.718-.743c-7.878-.154-15.777.218-23.633.83-7.79.612-15.559,1.485-23.3,2.358-7.615.854-15.318,2.055-23,2.031-6.689,0-15.867-.851-19.872-7.033C88.162,217.884,89.681,217.033,90.3,217.95Zm0,0" transform="translate(-88.288 -217.253)" fill="#93c572"/>
      </g>
      <g id="グループ_1838" data-name="グループ 1838" transform="translate(10.482 73.578)">
        <g id="グループ_1837" data-name="グループ 1837" transform="translate(0 0)">
          <g id="グループ_1836" data-name="グループ 1836">
            <path id="パス_193" data-name="パス 193" d="M11.126-8.073v-.708H5.2v.708H3.547V-18.947l1.784.461h.845a4.392,4.392,0,0,0,.239-.435c.085-.164.166-.335.248-.512s.149-.354.213-.521.111-.32.145-.452l2.458.384q-.384.352-.939.777a12.879,12.879,0,0,1-1.1.76h3.807l.486-.486,1.528.674-.452.512v9.713Zm0-9.363H5.2v1.767h5.923Zm0,2.817H5.2v1.767h5.923Zm0,2.817H5.2v1.955h5.923Zm0,0" transform="translate(-3.547 20.406)" fill="#93c572"/>
          </g>
        </g>
      </g>
      <g id="グループ_1841" data-name="グループ 1841" transform="translate(22.073 73.68)">
        <g id="グループ_1840" data-name="グループ 1840" transform="translate(0 0)">
          <g id="グループ_1839" data-name="グループ 1839" transform="translate(0 0)">
            <path id="パス_194" data-name="パス 194" d="M10.794-17.36a6.7,6.7,0,0,0-.358-1.041,3.934,3.934,0,0,0-.521-.9l.632-.376a6.659,6.659,0,0,1,.879.666,10.07,10.07,0,0,1,.76.743Zm2.057,5.42a2.762,2.762,0,0,0-.529.051,4.369,4.369,0,0,0-.478.162,1.174,1.174,0,0,0-.435.29,6.306,6.306,0,0,1-1.169-1.545A8.361,8.361,0,0,1,9.454-15a5.881,5.881,0,0,1-1.161,2.211,6.928,6.928,0,0,1-2.339,1.724l-.717-.64a6.359,6.359,0,0,0,1.212-.9A5.488,5.488,0,0,0,7.3-13.647a5.7,5.7,0,0,0,.546-1.161,7.457,7.457,0,0,0,.3-1.246H6.834a7.79,7.79,0,0,1-1.818,3.03A10.264,10.264,0,0,1,1.7-10.847l-.657-.7a8.523,8.523,0,0,0,3.184-2.586,7.806,7.806,0,0,0,1.425-3.738H4.018l-.239.35a6.979,6.979,0,0,1,.828.427,4.727,4.727,0,0,1,.674.469L4.188-15.268a5.34,5.34,0,0,0-.828-1.647c-.115.154-.228.3-.341.444s-.222.271-.341.4a7.7,7.7,0,0,1,.836.606,6.488,6.488,0,0,1,.768.708l-1.289,1.28a4.91,4.91,0,0,0-.341-1.11,7,7,0,0,0-.5-.93c-.218.218-.44.427-.666.632l-.777-.486a9.138,9.138,0,0,0,1.622-2.322,9.568,9.568,0,0,0,.836-2.526l1.818.427c-.068.154-.137.312-.2.469s-.141.32-.213.478H5.836l.367-.4,1.434.657-.367.5a9.582,9.582,0,0,1-.162,1.007H8.225c.011-.25.017-.5.017-.76s.009-.5.009-.743c0-.307,0-.591-.009-.853v-.683h1.6c0,.149,0,.337-.009.563s-.015.478-.026.751-.013.551-.017.845-.009.589-.026.879h1.212l.785-.589,1.118.828-1,.794H9.924a6.291,6.291,0,0,0,1.349,2.074,7.152,7.152,0,0,0,2,1.434ZM11.358-7.962c-.081-.222-.177-.461-.29-.717s-.239-.5-.376-.751-.273-.491-.427-.725a5.9,5.9,0,0,0-.461-.615l.794-.4a7.263,7.263,0,0,1,1.314.973,10.246,10.246,0,0,1,1.135,1.186ZM7.9-8.031a5.744,5.744,0,0,0-.085-.657,7.051,7.051,0,0,0-.162-.725c-.064-.25-.137-.5-.222-.743s-.171-.472-.256-.666L8-11.112a6.352,6.352,0,0,1,.5.546c.171.2.329.405.478.615s.286.422.418.632a4.762,4.762,0,0,1,.333.589Zm-3.073.017c.021-.16.036-.324.043-.5s.017-.333.017-.5a9.64,9.64,0,0,0-.051-1.007c-.03-.324-.066-.608-.111-.853l.879-.188a5.316,5.316,0,0,1,.316.589q.16.326.307.666c.1.222.184.442.265.657a5.12,5.12,0,0,1,.179.606ZM.672-9.268a5.359,5.359,0,0,0,.691-.358,7.11,7.11,0,0,0,.666-.478,6.093,6.093,0,0,0,.58-.538,4.542,4.542,0,0,0,.444-.546l.845.358q-.122.368-.282.768a6.834,6.834,0,0,1-.358.785,6.881,6.881,0,0,1-.452.717,3.221,3.221,0,0,1-.555.606Zm0,0" transform="translate(-0.672 20.219)" fill="#93c572"/>
          </g>
        </g>
      </g>
      <g id="グループ_1844" data-name="グループ 1844" transform="translate(35.567 75.234)">
        <g id="グループ_1843" data-name="グループ 1843" transform="translate(0 0)">
          <g id="グループ_1842" data-name="グループ 1842">
            <path id="パス_195" data-name="パス 195" d="M6.1-8.294a7.993,7.993,0,0,0,1.622-.324,4.871,4.871,0,0,0,1.536-.794A4.226,4.226,0,0,0,10.4-10.743a3.957,3.957,0,0,0,.452-1.955,4.048,4.048,0,0,0-.282-1.553,3.106,3.106,0,0,0-.76-1.144A3.374,3.374,0,0,0,8.655-16.1,4.033,4.033,0,0,0,7.2-16.359a5.057,5.057,0,0,0-1,.094l1.349.486c0,.051.009.107.009.162v.179a6.775,6.775,0,0,1-.2,1.485,14.952,14.952,0,0,1-.5,1.716,14.821,14.821,0,0,1-.708,1.664,8.908,8.908,0,0,1-.794,1.349,2.778,2.778,0,0,1-.734.674,1.511,1.511,0,0,1-.785.23,1.694,1.694,0,0,1-.8-.248,3.205,3.205,0,0,1-.845-.7,4.054,4.054,0,0,1-.657-1.092,3.759,3.759,0,0,1-.256-1.408,4.681,4.681,0,0,1,.171-1.221,5.865,5.865,0,0,1,.5-1.272,6.292,6.292,0,0,1,.828-1.186,5.466,5.466,0,0,1,1.178-1,6.012,6.012,0,0,1,1.511-.674,6.389,6.389,0,0,1,1.861-.256,6.219,6.219,0,0,1,2.125.35,5.047,5.047,0,0,1,1.664.982,4.425,4.425,0,0,1,1.1,1.519,4.648,4.648,0,0,1,.4,1.946,4.931,4.931,0,0,1-.376,1.92,4.557,4.557,0,0,1-1.127,1.579A6.079,6.079,0,0,1,9.236-7.935a9.844,9.844,0,0,1-2.629.589Zm-.2-7.912a4.569,4.569,0,0,0-1.579.734A4.387,4.387,0,0,0,3.3-14.4a4.288,4.288,0,0,0-.555,1.212,4.514,4.514,0,0,0-.162,1.135,2.4,2.4,0,0,0,.128.811,2.93,2.93,0,0,0,.316.623,1.6,1.6,0,0,0,.384.393.653.653,0,0,0,.333.137.478.478,0,0,0,.367-.213,6.933,6.933,0,0,0,.58-.964,12.841,12.841,0,0,0,.589-1.374,11.41,11.41,0,0,0,.461-1.562,6.919,6.919,0,0,0,.188-1.545c0-.068,0-.141-.009-.222S5.9-16.131,5.9-16.206Zm0,0" transform="translate(-1.281 17.375)" fill="#93c572"/>
          </g>
        </g>
      </g>
      <g id="グループ_1847" data-name="グループ 1847" transform="translate(47.749 73.748)">
        <g id="グループ_1846" data-name="グループ 1846" transform="translate(0 0)">
          <g id="グループ_1845" data-name="グループ 1845">
            <path id="パス_196" data-name="パス 196" d="M9.654-12.293v-.256H3.9v.273H2.391v-5.215l1.647.384H5.967v-.871H1.281l-.376-.982H5.967v-1.135h1.6v1.135h3.209l.828-.58,1.118.811-.982.751H7.563v.871H9.773l.512-.461,1.289.623-.376.418v4.233Zm2.014,3.585a4.12,4.12,0,0,0-.358-.777,7.638,7.638,0,0,0-.512-.76,7.46,7.46,0,0,0-.572-.691,7.48,7.48,0,0,0-.546-.538l.674-.555a8.143,8.143,0,0,1,1.511.879,7.369,7.369,0,0,1,1.263,1.127ZM7.759-9.92A4.591,4.591,0,0,0,6.9-10.936a6.507,6.507,0,0,0-1.075-.777l.529-.657a11.411,11.411,0,0,1,1.306.435,6.753,6.753,0,0,1,1.186.589ZM10-10.8c-.006.085-.009.166-.009.239v.2a2.955,2.955,0,0,0,.051.606,2.522,2.522,0,0,0,.111.393.888.888,0,0,0,.154.239,1,1,0,0,1,.145.2c-.058.079-.132.171-.222.273a1.242,1.242,0,0,1-.5.3,4.954,4.954,0,0,1-.99.23,12.417,12.417,0,0,1-1.707.094q-.736,0-1.314-.051a3.512,3.512,0,0,1-.982-.2,1.33,1.33,0,0,1-.615-.418,1.145,1.145,0,0,1-.2-.717v-.043l.026-2.56H5.48L5.455-9.92a.368.368,0,0,0,.137.307,1.018,1.018,0,0,0,.367.154,2.488,2.488,0,0,0,.5.06c.188.006.384.009.589.009.164,0,.333,0,.5-.009a4.992,4.992,0,0,0,.521-.06A1.166,1.166,0,0,0,8.6-9.63a.672.672,0,0,0,.23-.3,1.193,1.193,0,0,0,.085-.427,4.617,4.617,0,0,1,.077-.563ZM.453-9.732a5.938,5.938,0,0,0,1.263-.845,4.18,4.18,0,0,0,.99-1.28l.828.4a9.621,9.621,0,0,1-.649,1.681A5.831,5.831,0,0,1,1.93-8.384Zm9.2-6.5H7.537v.939H9.654Zm0,1.809H7.537v.982H9.654ZM5.992-16.227H3.9v.939H5.992Zm0,1.809H3.9v.982H5.992Zm0,0" transform="translate(-0.453 20.094)" fill="#93c572"/>
          </g>
        </g>
      </g>
      <g id="グループ_1850" data-name="グループ 1850" transform="translate(61.191 74.619)">
        <g id="グループ_1849" data-name="グループ 1849" transform="translate(0 0)">
          <g id="グループ_1848" data-name="グループ 1848" transform="translate(0 0)">
            <path id="パス_197" data-name="パス 197" d="M12.44-9.222q-.445-.416-.9-.785t-.947-.7a5.906,5.906,0,0,1-.913,1.246,5.93,5.93,0,0,1-1.152.913,6.871,6.871,0,0,1-1.331.615,9.728,9.728,0,0,1-1.477.384l-.546-.845a7.457,7.457,0,0,0,1.169-.393A5.748,5.748,0,0,0,7.43-9.419a5.818,5.818,0,0,0,.964-.9,5.23,5.23,0,0,0,.76-1.2A9.515,9.515,0,0,0,7.6-12.073a9.419,9.419,0,0,0-1.647-.282c-.064.132-.124.262-.179.393s-.119.269-.188.41a6.217,6.217,0,0,1-.725,1.195,4.767,4.767,0,0,1-.785.8,2.973,2.973,0,0,1-.811.452,2.235,2.235,0,0,1-.768.145,1.543,1.543,0,0,1-1.1-.41A1.437,1.437,0,0,1,.969-10.46a2.363,2.363,0,0,1,.256-1.05A2.988,2.988,0,0,1,2-12.466a4.48,4.48,0,0,1,1.263-.708A5.3,5.3,0,0,1,4.98-13.5q.333-.656.64-1.306c.2-.431.388-.821.555-1.169q.288-.621.555-1.169c-.228.115-.465.22-.708.316-.211.085-.45.169-.717.248a5.405,5.405,0,0,1-.811.179l-.845-1.323c.055,0,.113,0,.171.009h.162a8.914,8.914,0,0,0,1.186-.077A10.166,10.166,0,0,0,6.2-17.979a9.681,9.681,0,0,0,.99-.256l.333-.265,1.553.871c-.058.058-.111.115-.162.171a2.926,2.926,0,0,0-.265.3q-.394.557-.708,1.058t-.589.956c-.177.307-.341.61-.5.9s-.29.58-.427.871a16.209,16.209,0,0,1,1.622.23q.794.154,1.536.376a9.845,9.845,0,0,0,.23-2.228l1.7.384q-.026.7-.1,1.306a7.6,7.6,0,0,1-.239,1.161,10.939,10.939,0,0,1,2.057,1.263ZM4.4-12.38a4.049,4.049,0,0,0-1.092.341,2.754,2.754,0,0,0-.691.478,1.561,1.561,0,0,0-.358.512,1.211,1.211,0,0,0-.094.427c0,.194.09.29.273.29a1.012,1.012,0,0,0,.256-.051,1.349,1.349,0,0,0,.435-.256,4.151,4.151,0,0,0,.589-.615A6.326,6.326,0,0,0,4.4-12.38Zm0,0" transform="translate(-0.969 18.5)" fill="#93c572"/>
          </g>
        </g>
      </g>
      <g id="グループ_1853" data-name="グループ 1853" transform="translate(74.088 73.68)">
        <g id="グループ_1852" data-name="グループ 1852" transform="translate(0 0)">
          <g id="グループ_1851" data-name="グループ 1851" transform="translate(0 0)">
            <path id="パス_198" data-name="パス 198" d="M10.829-12.5h-6.5l-.367-.845h6.12l.708-.435.939.683ZM12.9-8.79a3.473,3.473,0,0,0-.546.2c-.16.073-.324.158-.5.256a1.994,1.994,0,0,0-.452.367,7.581,7.581,0,0,1-1.545-.452A5.6,5.6,0,0,1,8.644-9.1a5.414,5.414,0,0,1-.964-.9,7.618,7.618,0,0,1-.76-1.118H6.066v1.6c.307-.017.61-.038.913-.068s.591-.064.871-.094l-.026.751c-.324.09-.674.179-1.05.265s-.751.175-1.144.256-.775.158-1.161.222-.751.128-1.092.179L2.789-9.413h.853c.29,0,.574-.009.853-.026v-1.673H3.378a4.5,4.5,0,0,1-.76,1.7,6.65,6.65,0,0,1-1.4,1.374L.484-8.56a4.921,4.921,0,0,0,.751-.9,4.288,4.288,0,0,0,.452-.973,5.613,5.613,0,0,0,.222-1.11c.038-.4.06-.839.06-1.323,0-.158-.006-.346-.017-.563s-.015-.44-.026-.657-.017-.42-.034-.615-.026-.361-.043-.486l1.844.478h7.169l.717-.478H10.248v-.2H3.8v.171H2.285v-4.43l1.63.393h.973v-.964h1.5v.964H7.62v-.964H9.113v.964h1.255l.418-.41,1.331.606-.367.435v3.431h-.026l.956.7-.93.632h-8.2c0,.177,0,.354.009.529s.009.324.009.444c0,.324-.015.64-.043.947h7.63l.768-.563,1.067.734-.973.657h-1.28l1.195.691a9.555,9.555,0,0,1-1.016.358,8.836,8.836,0,0,1-1.075.239,7.831,7.831,0,0,0,1.425.273c.533.051,1.156.081,1.869.085Zm-2.654-9.636H8.985v.725h1.263Zm0,1.5H8.985v.751h1.263Zm-2.629-1.5H6.391v.725H7.62Zm0,1.5H6.391v.751H7.62Zm-2.595-1.5H3.8v.725H5.025Zm0,1.5H3.8v.751H5.025Zm2.842,5.812a3.972,3.972,0,0,0,1.144.947c.239-.137.472-.284.7-.444a4.653,4.653,0,0,0,.606-.5Zm0,0" transform="translate(-0.484 20.219)" fill="#93c572"/>
          </g>
        </g>
      </g>
      <g id="グループ_1856" data-name="グループ 1856" transform="translate(87.957 73.655)">
        <g id="グループ_1855" data-name="グループ 1855" transform="translate(0 0)">
          <g id="グループ_1854" data-name="グループ 1854">
            <path id="パス_199" data-name="パス 199" d="M11.4-8.035v-.572H3.352v.6H1.781V-20.24l1.7.435h8.066l.435-.461,1.434.674L13-19.079V-8.035Zm0-10.874H3.352v9.4H11.4Zm-1.024,3.26H3.9l-.35-.828H6.595v-.615H4.427l-.358-.828H6.595v-.606H8.089v.606H9.01l.666-.452.964.7-.879.58H8.089v.615H9.574l.734-.486.947.725Zm-.213,5.8a7.787,7.787,0,0,0-1-.828,9.776,9.776,0,0,0-1.127-.666V-9.87H6.561l.094-1.707a8.777,8.777,0,0,1-2.714,1.553L3.48-10.6A8.181,8.181,0,0,0,5.1-11.628,8.46,8.46,0,0,0,6.347-12.84h-.5v.179H4.547v-2.731l1.434.35H8.942l.41-.341,1.221.58-.393.41v1.647H9.668l1.067.486a4.93,4.93,0,0,1-1.306.606c.318.1.619.2.9.316s.548.23.794.35ZM8.84-14.274H5.852v.7H8.84Zm0,1.528v-.094h-.8v.811l.333.085a3.306,3.306,0,0,1,.333.094,1.866,1.866,0,0,0,.333-.427c.1-.164.179-.32.248-.469Zm0,0" transform="translate(-1.781 20.266)" fill="#93c572"/>
          </g>
        </g>
      </g>
    </g>
  </g>
</svg>
