<svg xmlns="http://www.w3.org/2000/svg" xmlns:xlink="http://www.w3.org/1999/xlink" width="304" height="25.564" viewBox="0 0 304 25.564">
  <defs>
    <clipPath id="clip-path">
      <path id="パス_129" data-name="パス 129" d="M71.551,198.383h304v25.564h-304Zm0,0" transform="translate(-71.551 -198.383)"/>
    </clipPath>
  </defs>
  <g id="グループ_1770" data-name="グループ 1770" transform="translate(-71.551 -190.309)">
    <path id="パス_127" data-name="パス 127" d="M186.89,209.89a72.586,72.586,0,0,0-19.463-4.148c-1.366-.12-1.366-2.36,0-2.189a62.363,62.363,0,0,1,20.005,5.1C188.1,208.936,187.6,210.171,186.89,209.89Zm0,0" transform="translate(177.845 1.953)" fill="#93c572"/>
    <g id="グループ_1743" data-name="グループ 1743" transform="translate(71.551 190.309)" clip-path="url(#clip-path)">
      <path id="パス_128" data-name="パス 128" d="M76.345,200.1c4.771,7.434,13.17,11.339,21.314,13.636,9.664,2.718,19.694,3.462,29.647,3.406,20.659-.189,41.43-3.351,61.956-5.581,41.974-4.516,84.18-9.287,126.442-8.665a264.741,264.741,0,0,1,28.138,1.609c21.137,3.1,28.87,9.72,29.347,10.163s.965.865,1.387,1.3a.738.738,0,0,1-.721,1.232c-8.51-3.029-16.909-5.88-25.841-7.367-9.72-1.609-19.561-1.919-29.414-2.108a648.745,648.745,0,0,0-64.841,2.352c-21.381,1.742-42.695,4.216-63.953,6.691-20.892,2.419-42.029,5.825-63.1,5.77-18.352,0-43.538-2.419-54.522-19.949C70.486,199.922,74.658,197.5,76.345,200.1Zm0,0" transform="translate(-71.119 -197.27)" fill="#93c572"/>
    </g>
  </g>
</svg>
