<svg xmlns="http://www.w3.org/2000/svg" xmlns:xlink="http://www.w3.org/1999/xlink" width="1366" height="891" viewBox="0 0 1366 891">
  <defs>
    <clipPath id="clip-path">
      <path id="パス_176" data-name="パス 176" d="M103.613,111H507.29V370.028H103.613Zm0,0" transform="translate(-103.613 -111)"/>
    </clipPath>
    <clipPath id="clip-path-2">
      <path id="パス_189" data-name="パス 189" d="M106,101.051H497.663V252.308H106Zm0,0" transform="translate(-106 -101.051)"/>
    </clipPath>
    <clipPath id="clip-path-3">
      <path id="パス_192" data-name="パス 192" d="M88,217H575.776v38.314H88Zm0,0" transform="translate(-88 -217)"/>
    </clipPath>
  </defs>
  <g id="no-image" transform="translate(-253 -504)">
    <rect id="長方形_1112" data-name="長方形 1112" width="1366" height="891" transform="translate(253 504)" fill="#f0f0f0"/>
    <g id="LOGO2" transform="translate(692.319 760.539)">
      <g id="グループ_1833" data-name="グループ 1833" transform="translate(37.516 23.906)" clip-path="url(#clip-path)">
        <path id="パス_175" data-name="パス 175" d="M201.932,280.663c2.149-4.224,3.313-4.355,3.219-8.523s-1.267-11.611-.845-14.182c0,0-13.938,2.084-17.514-8.851,0,0,6.12-9.517,18.293-.15,0,0,1.483.056,1.483-2.553-.009-6.673,6.842-6.3,8.673-7.471,1.53-.967,6.458-1.755,8.626.3,2.074,1.952,6.007-.281,9.367,3.726,2.121,2.534,11.939,2.506,28.872,2.178,41.862-.807,51.98,8.861,99.164-7.293,13.92-4.759,24.291-1.577,31.227,5.791,5.35-.1,17.571,1.267,16.764,15.985-1.042,18.81-4.43,48.742,6.12,53.041a4.625,4.625,0,0,1-2.929-.131,7.881,7.881,0,0,0,2.206,1.84,3.334,3.334,0,0,1,1.83,2.76s-1.37-1.6-2.881-1.4c0,0,2.947,1.483,1.736,5.613,0,0-.207-2.619-1.605-3.529a8.454,8.454,0,0,1-.31,2.994,4.368,4.368,0,0,0-1.107-2.046s-1.793,4.712,2.469,4.815c0,0-3.811,3.182-5.04-5.05a3.3,3.3,0,0,0-1.765-2.469,8.9,8.9,0,0,1,.263,3.839,35.033,35.033,0,0,0-1.333-4.036c-.488-.939-.394-1.492-.066-3.51s-.225-3.586-.882-5.894-1.333-9.827-1.07-19.457c.253-9.386,1-33.818-6.871-35.263,6.767,13.685,6.664,33.443-.038,48.517-5.144,11.592-.385,18.425,1.3,20.631s.751,5.895-.648,12.268c-.4,1.83-.9,4.365-1.4,7.321a16.824,16.824,0,0,0,2.253-7.4c5.162,4.9-8.936,19.57-.507,34.541,0,0,.319-17.805,6.758-22.6,0,0-3.6,8.851.413,17.871,4.027-9.02.413-17.871.413-17.871,6.448,4.8,6.758,22.6,6.758,22.6,8.438-14.971-5.66-29.641-.507-34.541.488,9.705,9.79,12.925,8.156,27.154,6.57-7.7,4.862-20.33,4.862-20.33,6.57,18.247-5.181,29.238-5.181,29.238,13.563-6.673,9.292-28.928,15.346-31.19a81.3,81.3,0,0,0,.451,18.247,37.217,37.217,0,0,0,2.084-23.869c7.518,8.081,3.407,21.4,3.407,21.4,14.464-19.194,25.774-21.419,25.774-21.419s-12.192,7.246-21.3,24.028c0,0,6.007-4.975,10.625-6.777a29.147,29.147,0,0,0-8.279,15.027c4.993-10.353,23.69-23.55,23.69-23.55a41.5,41.5,0,0,0-12.258,18.5c8.523-13.61,19.777-18.688,19.777-18.688a39.462,39.462,0,0,0-11.873,19.129c9.855-17.3,24.2-23.737,24.2-23.737-14.286,12-14.849,27.21-14.849,27.21,3.473-12.756,15.1-20.265,15.1-20.265-10.869,11.873-9.1,20.649-9.1,20.649-.066-5.435,4.609-10.484,4.609-10.484-1.07,4.233,1.2,9.724,1.2,9.724a48.928,48.928,0,0,1,7.8-12.277,202.565,202.565,0,0,0,6.195-102.365c-24.61-17.308-78.693-62.924-84.916-66.444-7.133-4.036-9.424,2.29-19.251-8.748s-41.543-43.4-53.529-53.632-14.342-8.138-19.054-6.927-9.424,8.476-4.111,17.017,1.22,16.7-3.9,23.831a11.729,11.729,0,0,0-.469,13.525c9.7,21.663,51.3,40.839,51.3,40.839,7.162,2.609,18.7,6.683,4.1,4.449-21.447-3.294-38.849-15.562-53.726-26.788-16.491-12.446-23.69-3.426-23.831,2.29s-2.628,7.406-14.408-.469-29.05-26.45-29.05-26.45c-7.988-7.237-13.948-14.971-22.78-6.242-3.248,3.21-6.73,8.147-5.228,11.489,2.084,4.646,2.966,8.419-2.159,11.1s-21.2,5.05-20.462,16.688,23.024,22.611,23.024,22.611c-35.489-2.056-27.426-34.24-56.964-10.625-16.247,12.99-44.284,28.956-59.2,37.131l-.009.009q-.7,3.069-1.3,6.176a.029.029,0,0,1,.019-.009A202.52,202.52,0,0,0,113.713,350.8a49.2,49.2,0,0,1,7.79,12.277s2.271-5.491,1.2-9.724c0,0,4.674,5.05,4.609,10.484,0,0,1.774-8.776-9.1-20.649,0,0,11.62,7.509,15.1,20.265,0,0-.573-15.215-14.849-27.21,0,0,14.342,6.439,24.2,23.737a39.522,39.522,0,0,0-11.883-19.129s11.254,5.078,19.776,18.688a41.5,41.5,0,0,0-12.258-18.5s18.706,13.2,23.69,23.55a29.173,29.173,0,0,0-8.269-15.027c4.618,1.8,10.625,6.777,10.625,6.777-9.1-16.782-21.306-24.028-21.306-24.028s11.31,2.225,25.774,21.419c0,0-4.1-13.319,3.417-21.4a37.217,37.217,0,0,0,2.084,23.869,81.669,81.669,0,0,0,.441-18.247c6.054,2.262,1.793,24.517,15.346,31.19,0,0-11.742-10.991-5.172-29.238,0,0-1.708,12.634,4.862,20.33-1.643-14.229,7.659-17.449,8.147-27.154,5.162,4.9-8.945,19.57-.507,34.541,0,0,.319-17.805,6.767-22.6,0,0-3.914,9.593.939,18.988,4.862-9.4.948-18.988.948-18.988,6.439,4.8,6.758,22.6,6.758,22.6,8.438-14.971-5.669-29.641-.507-34.541.488,9.705,9.79,12.925,8.147,27.154,6.57-7.7,4.871-20.33,4.871-20.33,6.57,18.247-5.181,29.238-5.181,29.238,13.553-6.673,9.292-28.928,15.346-31.19a81.671,81.671,0,0,0,.441,18.247,37.144,37.144,0,0,0,2.084-23.869c7.518,8.081,3.417,21.4,3.417,21.4a82.244,82.244,0,0,1,13.61-14.492,42.2,42.2,0,0,0-3.567-12.1,9.718,9.718,0,0,1-4.721-3.707c-2.243-3.06-4-3.548-5.632-3.97a13.032,13.032,0,0,1-5.341-4.139c-.619-1.136-1.849-1.6-2.957-2.694s-1.145.253-1.53-7.621-5.566-15.553-10.193-15.13-7.941-.253-10.512.526-3.679-1-4.524-2.178-1.6-.554-2.806-.789S199.783,284.9,201.932,280.663Zm0,0" transform="translate(-103.548 -110.099)" fill="#93c572" fill-rule="evenodd"/>
      </g>
      <path id="パス_177" data-name="パス 177" d="M258.847,202.993c-33.668,33.33-59.771,2.365-79.341,11.714,0,0-.319-2.957,3.1-10.409s.131-17.177.131-17.177.648,11.385-2.609,16.848-3.97,8.851-2.478,17.439c1.108,6.317-.573,11.958-1.793,16a32.439,32.439,0,0,1,4.2-2.45,35.2,35.2,0,0,0-5.012,5.313c-.075.3-.141.591-.188.854a35.3,35.3,0,0,0-.3,3.755c8.691-10.437,17.815-14.53,17.815-14.53-14.276,12-14.839,27.21-14.839,27.21C181,244.808,192.619,237.3,192.619,237.3c-10.869,11.873-9.1,20.649-9.1,20.649-.066-5.434,4.609-10.484,4.609-10.484-1.07,4.233,1.2,9.724,1.2,9.724a48.561,48.561,0,0,1,7.246-11.62,48.519,48.519,0,0,0-6.007-4.928,21.633,21.633,0,0,1,6.993,3.783,38.619,38.619,0,0,1,4.721-4.6,32.492,32.492,0,0,0-3.661,5.435c.695.563,1.417,1.2,2.159,1.915a65,65,0,0,1,4.12-5.481,38.4,38.4,0,0,0-7.321-9.255s3.886,2.009,8.889,7.471c5-5.463,8.889-7.471,8.889-7.471a38.4,38.4,0,0,0-7.321,9.255,63.043,63.043,0,0,1,4.13,5.481c.732-.713,1.455-1.352,2.159-1.915a33.151,33.151,0,0,0-3.67-5.435,39.027,39.027,0,0,1,4.731,4.6,21.549,21.549,0,0,1,6.983-3.783,48.517,48.517,0,0,0-6.007,4.928,48.563,48.563,0,0,1,7.246,11.62s2.271-5.491,1.2-9.724c0,0,4.674,5.05,4.609,10.484,0,0,1.774-8.776-9.1-20.649,0,0,11.62,7.509,15.1,20.264,0,0-.573-15.215-14.849-27.21,0,0,14.342,6.439,24.2,23.737a39.522,39.522,0,0,0-11.883-19.129s11.254,5.078,19.776,18.688a41.524,41.524,0,0,0-12.249-18.5s12.559,8.87,19.842,17.768l.76-1.183s.141-.216.375-.62a27.464,27.464,0,0,0-5.566-7.443,37.425,37.425,0,0,1,7.321,4.261c.263-.526.544-1.1.835-1.7-8.692-13.788-18.838-19.814-18.838-19.814s8.776,1.727,20.743,15.252a27.776,27.776,0,0,0,1.84-8.551s1.493-3.933-1.53-10.831-3.257-11.489-3.848-16.238-7.612-14.961-15.234-10.212C247.124,195.841,254.192,194.536,258.847,202.993Zm0,0" transform="translate(33.417 19.692)" fill="#93c572" fill-rule="evenodd"/>
      <path id="パス_178" data-name="パス 178" d="M218.32,236.29c1.483,4.984,1.877,13.244,5.247,19.654a7.971,7.971,0,0,0,1.549-2.149,28.287,28.287,0,0,1-.451-16.623c-.282-2.422-.5-4.083-.5-4.083,8.194-6.636-2.468-23.08,1.774-25.812,3.126-2.018,10.522-12.174,9.93-20.18-1.286,5.641-7.94,15.6-10.822,17.167-8.307,4.515,4.843,21.212-2.7,26.581C221.3,231.6,219.869,233.615,218.32,236.29Zm0,0" transform="translate(94.818 19.659)" fill="#93c572" fill-rule="evenodd"/>
      <path id="パス_179" data-name="パス 179" d="M217.9,218.832a72.314,72.314,0,0,0,.723-9.273c-.8,1.586-1.6,3.248-2.356,4.918A33.494,33.494,0,0,0,217.9,218.832Zm0,0" transform="translate(91.941 51.168)" fill="#93c572" fill-rule="evenodd"/>
      <path id="パス_180" data-name="パス 180" d="M171.651,215.252c.019-1.22.019-2.713-.028-4.393a29.252,29.252,0,0,0-7.772,14.539C165.428,222.132,168.366,218.584,171.651,215.252Zm0,0" transform="translate(18.407 52.993)" fill="#93c572" fill-rule="evenodd"/>
      <path id="パス_181" data-name="パス 181" d="M162.875,221.488s5.566-4.618,10.109-6.561c-.075-2.168-.225-4.609-.516-7.162A73.3,73.3,0,0,0,162.875,221.488Zm0,0" transform="translate(17.037 48.653)" fill="#93c572" fill-rule="evenodd"/>
      <path id="パス_182" data-name="パス 182" d="M172.617,210.148a41.792,41.792,0,0,0-2.666,4.28c-.056.995-.113,1.971-.178,2.863.882-1.173,1.783-2.262,2.675-3.276C172.571,212.486,172.636,211.134,172.617,210.148Zm0,0" transform="translate(26.715 51.995)" fill="#93c572" fill-rule="evenodd"/>
      <path id="パス_183" data-name="パス 183" d="M170.281,217.5c.788-.676,1.558-1.314,2.3-1.915-.469-2.928-1.52-7.04-2.281-10.785-.207.178-.422.357-.648.544.141,1.614.375,3.567.742,5.838C170.394,211.187,170.384,214.05,170.281,217.5Zm0,0" transform="translate(26.545 44.499)" fill="#93c572" fill-rule="evenodd"/>
      <path id="パス_184" data-name="パス 184" d="M169.66,206.785c.169-.094.338-.188.5-.272-.253-1.408-.46-2.722-.554-3.876A32.874,32.874,0,0,0,169.66,206.785Zm0,0" transform="translate(26.425 41.458)" fill="#93c572" fill-rule="evenodd"/>
      <path id="パス_185" data-name="パス 185" d="M188.85,211.2a25.993,25.993,0,0,0-1.736,6.57c.582.723,1.155,1.5,1.736,2.328.582-.826,1.164-1.6,1.736-2.328A25.991,25.991,0,0,0,188.85,211.2Zm0,0" transform="translate(51.04 53.475)" fill="#93c572" fill-rule="evenodd"/>
      <path id="パス_186" data-name="パス 186" d="M187.955,214.052c-.563-.685-1.173-1.389-1.821-2.084a33.782,33.782,0,0,0-3.248,11.564A77.9,77.9,0,0,1,187.955,214.052Zm0,0" transform="translate(45.111 54.549)" fill="#93c572" fill-rule="evenodd"/>
      <path id="パス_187" data-name="パス 187" d="M190.676,214.052a77.9,77.9,0,0,1,5.068,9.48,33.621,33.621,0,0,0-3.238-11.564C191.849,212.663,191.239,213.367,190.676,214.052Zm0,0" transform="translate(56.037 54.549)" fill="#93c572" fill-rule="evenodd"/>
      <g id="グループ_1834" data-name="グループ 1834" transform="translate(43.251 0)" clip-path="url(#clip-path-2)">
        <path id="パス_188" data-name="パス 188" d="M106.777,248.037c22.893-8.691,95.86-78.8,111.582-92.171,14.943-12.718,25.108-1.887,30.965,3.435s21.616,15.881,21.616,15.881l-12.193-13.187s2.431-1.821,28.815-26.45,35.01-23.015,42.012-21.8,47.137,38.624,82.954,69.307C445.615,211.4,489.5,245.719,496,250.787a201.827,201.827,0,0,0-389.222-2.75Zm0,0" transform="translate(-104.909 -101.051)" fill="#93c572" fill-rule="evenodd"/>
      </g>
      <path id="パス_190" data-name="パス 190" d="M304.225,236.783a132.368,132.368,0,0,0-34.466-7.115c-2.422-.188-2.422-4.036,0-3.745a113.521,113.521,0,0,1,35.432,8.739C306.356,235.15,305.483,237.262,304.225,236.783Zm0,0" transform="translate(164.431 74.103)" fill="#93c572"/>
      <g id="グループ_1835" data-name="グループ 1835" transform="translate(0 278.607)" clip-path="url(#clip-path-3)">
        <path id="パス_191" data-name="パス 191" d="M95.943,219.288c7.65,11.526,21.109,17.58,34.175,21.137,15.487,4.224,31.556,5.378,47.531,5.284,33.1-.291,66.406-5.191,99.323-8.645,67.279-7.021,134.944-14.417,202.7-13.45,15.008.282,30.2.666,45.119,2.5,33.874,4.806,46.264,15.083,47.043,15.75s1.549,1.352,2.224,2.018A1.159,1.159,0,0,1,572.9,245.8c-13.648-4.7-27.1-9.123-41.43-11.432-15.581-2.5-31.359-2.975-47.146-3.266-34.654-.676-69.4.957-103.96,3.651-34.269,2.694-68.443,6.533-102.515,10.372-33.5,3.754-67.383,9.039-101.163,8.936-29.425,0-69.795-3.745-87.413-30.937C86.557,219,93.24,215.252,95.943,219.288Zm0,0" transform="translate(-87.111 -216.219)" fill="#93c572"/>
      </g>
      <g id="グループ_1838" data-name="グループ 1838" transform="translate(46.11 323.659)">
        <g id="グループ_1837" data-name="グループ 1837" transform="translate(0 0)">
          <g id="グループ_1836" data-name="グループ 1836">
            <path id="パス_193" data-name="パス 193" d="M36.886,33.845V30.729H10.83v3.116H3.547V-13.986l7.847,2.027h3.717a19.318,19.318,0,0,0,1.051-1.915c.375-.723.732-1.474,1.089-2.253.347-.8.657-1.558.939-2.29.272-.751.488-1.408.638-1.99L29.64-18.717q-1.689,1.549-4.13,3.417a56.654,56.654,0,0,1-4.843,3.341H37.412l2.14-2.14,6.72,2.966L44.282-8.88V33.845Zm0-41.186H10.83V.431H36.886Zm0,12.39H10.83V12.82H36.886Zm0,12.39H10.83v8.6H36.886Zm0,0" transform="translate(-3.547 20.406)" fill="#93c572"/>
          </g>
        </g>
      </g>
      <g id="グループ_1841" data-name="グループ 1841" transform="translate(97.095 324.109)">
        <g id="グループ_1840" data-name="グループ 1840" transform="translate(0 0)">
          <g id="グループ_1839" data-name="グループ 1839" transform="translate(0 0)">
            <path id="パス_194" data-name="パス 194" d="M45.2-7.641a29.478,29.478,0,0,0-1.577-4.58,17.3,17.3,0,0,0-2.29-3.98l2.778-1.652a29.292,29.292,0,0,1,3.867,2.928,44.3,44.3,0,0,1,3.341,3.266ZM54.248,16.2a12.15,12.15,0,0,0-2.328.225,19.22,19.22,0,0,0-2.1.713A5.163,5.163,0,0,0,47.9,18.414a27.739,27.739,0,0,1-5.144-6.8A36.78,36.78,0,0,1,39.3,2.758,25.87,25.87,0,0,1,34.2,12.482a30.477,30.477,0,0,1-10.287,7.584L20.758,17.25a27.974,27.974,0,0,0,5.331-3.98,24.141,24.141,0,0,0,3.754-4.58,25.078,25.078,0,0,0,2.4-5.106A32.8,32.8,0,0,0,33.561-1.9H27.779a34.268,34.268,0,0,1-8,13.328A45.15,45.15,0,0,1,5.177,21L2.286,17.926a37.493,37.493,0,0,0,14-11.376A34.336,34.336,0,0,0,22.56-9.894H15.389L14.338-8.355A30.7,30.7,0,0,1,17.98-6.478a20.8,20.8,0,0,1,2.966,2.065L16.14,1.557A23.489,23.489,0,0,0,12.5-5.689c-.507.676-1,1.333-1.5,1.952-.479.6-.976,1.192-1.5,1.765A33.854,33.854,0,0,1,13.174.693,28.539,28.539,0,0,1,16.553,3.81L10.884,9.441a21.6,21.6,0,0,0-1.5-4.881A30.771,30.771,0,0,0,7.2.468c-.957.957-1.934,1.877-2.928,2.778L.86,1.106A40.2,40.2,0,0,0,7.993-9.106a42.09,42.09,0,0,0,3.679-11.113l8,1.877c-.3.676-.6,1.37-.9,2.065s-.619,1.408-.939,2.1h5.557L25-15.939l6.307,2.891L29.694-10.87a42.148,42.148,0,0,1-.713,4.43H33.9c.047-1.1.075-2.215.075-3.341.019-1.126.038-2.215.038-3.266,0-1.352-.019-2.6-.038-3.754v-3h7.058c0,.657-.019,1.483-.038,2.478s-.066,2.1-.113,3.3c-.028,1.183-.056,2.422-.075,3.717,0,1.3-.038,2.591-.113,3.867h5.331l3.454-2.591L54.4-5.389,50.005-1.9H41.37A27.675,27.675,0,0,0,47.3,7.226a31.462,31.462,0,0,0,8.785,6.307Zm-6.57,17.5c-.357-.976-.779-2.027-1.277-3.154-.507-1.108-1.051-2.2-1.652-3.3-.582-1.1-1.2-2.159-1.877-3.191a25.971,25.971,0,0,0-2.027-2.7l3.492-1.765a31.951,31.951,0,0,1,5.782,4.28,45.07,45.07,0,0,1,4.993,5.219Zm-15.205-.3A25.266,25.266,0,0,0,32.1,30.5a31.017,31.017,0,0,0-.713-3.191c-.282-1.1-.6-2.187-.976-3.266q-.563-1.647-1.126-2.928l3.642-1.277a27.94,27.94,0,0,1,2.178,2.4c.751.882,1.445,1.783,2.1,2.7s1.258,1.858,1.84,2.778a20.949,20.949,0,0,1,1.464,2.591Zm-13.516.075c.094-.7.16-1.427.188-2.178.047-.732.075-1.464.075-2.215a42.406,42.406,0,0,0-.225-4.43c-.131-1.427-.291-2.675-.488-3.754l3.867-.826a23.384,23.384,0,0,1,1.389,2.591q.7,1.436,1.352,2.928c.422.976.807,1.943,1.164,2.891a22.524,22.524,0,0,1,.788,2.666ZM.672,27.951a23.572,23.572,0,0,0,3.041-1.577,31.279,31.279,0,0,0,2.928-2.1,26.8,26.8,0,0,0,2.553-2.365,19.98,19.98,0,0,0,1.952-2.4l3.717,1.577q-.535,1.619-1.239,3.379a30.064,30.064,0,0,1-1.577,3.454,30.268,30.268,0,0,1-1.99,3.154,14.169,14.169,0,0,1-2.44,2.666Zm0,0" transform="translate(-0.672 20.219)" fill="#93c572"/>
          </g>
        </g>
      </g>
      <g id="グループ_1844" data-name="グループ 1844" transform="translate(156.452 330.942)">
        <g id="グループ_1843" data-name="グループ 1843" transform="translate(0 0)">
          <g id="グループ_1842" data-name="グループ 1842">
            <path id="パス_195" data-name="パス 195" d="M22.494,22.572a35.161,35.161,0,0,0,7.133-1.427,21.428,21.428,0,0,0,6.758-3.492A18.589,18.589,0,0,0,41.379,11.8a17.4,17.4,0,0,0,1.99-8.6,17.808,17.808,0,0,0-1.239-6.833,13.662,13.662,0,0,0-3.341-5.031,14.842,14.842,0,0,0-5.068-3.116,17.742,17.742,0,0,0-6.42-1.126,22.244,22.244,0,0,0-4.393.413l5.932,2.14c.019.225.038.469.038.713v.788a29.8,29.8,0,0,1-.864,6.533,65.77,65.77,0,0,1-2.178,7.546,65.2,65.2,0,0,1-3.116,7.321,39.185,39.185,0,0,1-3.492,5.932A12.221,12.221,0,0,1,16,21.446a6.646,6.646,0,0,1-3.454,1.014,7.45,7.45,0,0,1-3.529-1.089A14.1,14.1,0,0,1,5.3,18.292a17.832,17.832,0,0,1-2.891-4.806A16.535,16.535,0,0,1,1.281,7.292a20.591,20.591,0,0,1,.751-5.369A25.8,25.8,0,0,1,4.247-3.671,27.677,27.677,0,0,1,7.889-8.89a24.044,24.044,0,0,1,5.181-4.393,26.444,26.444,0,0,1,6.645-2.966A28.1,28.1,0,0,1,27.9-17.375a27.358,27.358,0,0,1,9.349,1.539,22.2,22.2,0,0,1,7.321,4.318,19.464,19.464,0,0,1,4.843,6.683,20.448,20.448,0,0,1,1.765,8.56,21.69,21.69,0,0,1-1.652,8.447,20.047,20.047,0,0,1-4.956,6.946,26.741,26.741,0,0,1-8.3,5.031A43.3,43.3,0,0,1,24.709,26.74Zm-.9-34.8A20.1,20.1,0,0,0,14.647-9,19.3,19.3,0,0,0,10.142-4.31,18.864,18.864,0,0,0,7.7,1.022a19.855,19.855,0,0,0-.713,4.993,10.535,10.535,0,0,0,.563,3.567A12.889,12.889,0,0,0,8.94,12.323,7.06,7.06,0,0,0,10.63,14.05a2.872,2.872,0,0,0,1.464.6,2.1,2.1,0,0,0,1.614-.939,30.5,30.5,0,0,0,2.553-4.243,56.486,56.486,0,0,0,2.591-6.045,50.191,50.191,0,0,0,2.027-6.871,30.436,30.436,0,0,0,.826-6.8c0-.3-.019-.619-.038-.976S21.612-11.9,21.593-12.231Zm0,0" transform="translate(-1.281 17.375)" fill="#93c572"/>
          </g>
        </g>
      </g>
      <g id="グループ_1847" data-name="グループ 1847" transform="translate(210.04 324.41)">
        <g id="グループ_1846" data-name="グループ 1846" transform="translate(0 0)">
          <g id="グループ_1845" data-name="グループ 1845">
            <path id="パス_196" data-name="パス 196" d="M40.926,14.222V13.1h-25.3v1.2H8.976V-8.643l7.246,1.689h8.485v-3.83H4.095L2.443-15.1H24.707v-4.993h7.021V-15.1H45.844l3.642-2.553L54.4-14.087l-4.318,3.3H31.728v3.83h9.724L43.7-8.981,49.373-6.24,47.721-4.4V14.222Zm8.86,15.769a18.122,18.122,0,0,0-1.577-3.417,33.6,33.6,0,0,0-2.253-3.341,32.816,32.816,0,0,0-2.515-3.041,32.9,32.9,0,0,0-2.4-2.365L44,15.386a35.821,35.821,0,0,1,6.645,3.867,32.417,32.417,0,0,1,5.557,4.956Zm-17.2-5.331A20.194,20.194,0,0,0,28.8,20.191a28.625,28.625,0,0,0-4.731-3.417L26.4,13.884A50.2,50.2,0,0,1,32.141,15.8a29.707,29.707,0,0,1,5.219,2.591Zm9.837-3.867c-.028.375-.038.732-.038,1.051v.9a13,13,0,0,0,.225,2.666,11.091,11.091,0,0,0,.488,1.727,3.905,3.905,0,0,0,.676,1.051,4.419,4.419,0,0,1,.638.864c-.253.347-.582.751-.976,1.2a5.463,5.463,0,0,1-2.178,1.314,21.791,21.791,0,0,1-4.355,1.014,54.619,54.619,0,0,1-7.509.413q-3.238,0-5.782-.225a15.449,15.449,0,0,1-4.318-.864,5.85,5.85,0,0,1-2.7-1.84,5.037,5.037,0,0,1-.9-3.154v-.188l.113-11.263h6.758l-.113,9.2a1.621,1.621,0,0,0,.6,1.352,4.479,4.479,0,0,0,1.614.676,10.944,10.944,0,0,0,2.215.263c.826.028,1.689.038,2.591.038.723,0,1.464-.009,2.215-.038a21.958,21.958,0,0,0,2.29-.263,5.127,5.127,0,0,0,2.29-.751,2.955,2.955,0,0,0,1.014-1.314,5.248,5.248,0,0,0,.375-1.877A20.308,20.308,0,0,1,38,20.266ZM.453,25.485A26.122,26.122,0,0,0,6.01,21.768a18.385,18.385,0,0,0,4.355-5.632L14.007,17.9a42.324,42.324,0,0,1-2.853,7.4,25.651,25.651,0,0,1-4.2,6.12ZM40.926-3.086H31.615v4.13h9.311Zm0,7.959H31.615V9.191h9.311ZM24.819-3.086h-9.2v4.13h9.2Zm0,7.959h-9.2V9.191h9.2Zm0,0" transform="translate(-0.453 20.094)" fill="#93c572"/>
          </g>
        </g>
      </g>
      <g id="グループ_1850" data-name="グループ 1850" transform="translate(269.172 328.239)">
        <g id="グループ_1849" data-name="グループ 1849" transform="translate(0 0)">
          <g id="グループ_1848" data-name="グループ 1848" transform="translate(0 0)">
            <path id="パス_197" data-name="パス 197" d="M51.428,22.311q-1.957-1.83-3.98-3.454-2.027-1.647-4.167-3.079a25.98,25.98,0,0,1-4.017,5.481A26.084,26.084,0,0,1,34.2,25.277a30.224,30.224,0,0,1-5.857,2.7,42.79,42.79,0,0,1-6.5,1.69l-2.4-3.717a32.8,32.8,0,0,0,5.144-1.727,25.285,25.285,0,0,0,4.806-2.778,25.591,25.591,0,0,0,4.243-3.98,23.007,23.007,0,0,0,3.341-5.294,41.856,41.856,0,0,0-6.833-2.4,41.435,41.435,0,0,0-7.246-1.239c-.282.582-.544,1.154-.788,1.727s-.526,1.183-.826,1.8a27.349,27.349,0,0,1-3.191,5.256,20.967,20.967,0,0,1-3.454,3.529,13.076,13.076,0,0,1-3.567,1.99,9.831,9.831,0,0,1-3.379.638,6.787,6.787,0,0,1-4.843-1.8A6.32,6.32,0,0,1,.969,16.867,10.393,10.393,0,0,1,2.1,12.249a13.145,13.145,0,0,1,3.417-4.2,19.706,19.706,0,0,1,5.557-3.116A23.315,23.315,0,0,1,18.615,3.5Q20.079.615,21.43-2.243c.9-1.9,1.708-3.614,2.44-5.144q1.267-2.731,2.44-5.144c-1,.507-2.046.967-3.116,1.389-.929.375-1.98.742-3.154,1.089a23.777,23.777,0,0,1-3.567.788l-3.717-5.819c.244,0,.5.019.751.038h.713a39.213,39.213,0,0,0,5.219-.338,44.718,44.718,0,0,0,4.543-.826,42.584,42.584,0,0,0,4.355-1.126L29.8-18.5l6.833,3.83c-.253.253-.488.507-.713.751a12.872,12.872,0,0,0-1.164,1.314q-1.732,2.45-3.116,4.655-1.394,2.182-2.591,4.2c-.779,1.352-1.5,2.684-2.178,3.98C26.217,1.511,25.6,2.788,25,4.064a71.3,71.3,0,0,1,7.133,1.014q3.492.676,6.758,1.652a43.307,43.307,0,0,0,1.014-9.8L47.374-1.38q-.113,3.083-.451,5.744a33.446,33.446,0,0,1-1.051,5.106,48.118,48.118,0,0,1,9.048,5.557ZM16.062,8.419a17.813,17.813,0,0,0-4.806,1.5,12.113,12.113,0,0,0-3.041,2.1,6.864,6.864,0,0,0-1.577,2.253,5.328,5.328,0,0,0-.413,1.877c0,.854.394,1.277,1.2,1.277A4.452,4.452,0,0,0,8.553,17.2a5.932,5.932,0,0,0,1.915-1.126,18.26,18.26,0,0,0,2.591-2.7A27.826,27.826,0,0,0,16.062,8.419Zm0,0" transform="translate(-0.969 18.5)" fill="#93c572"/>
          </g>
        </g>
      </g>
      <g id="グループ_1853" data-name="グループ 1853" transform="translate(325.902 324.109)">
        <g id="グループ_1852" data-name="グループ 1852" transform="translate(0 0)">
          <g id="グループ_1851" data-name="グループ 1851" transform="translate(0 0)">
            <path id="パス_198" data-name="パス 198" d="M45.988,13.721H17.379L15.765,10H42.684L45.8,8.09l4.13,3Zm9.123,16.332a15.279,15.279,0,0,0-2.4.9c-.7.319-1.427.695-2.178,1.126a8.771,8.771,0,0,0-1.99,1.614,33.347,33.347,0,0,1-6.8-1.99,24.63,24.63,0,0,1-5.369-3,23.817,23.817,0,0,1-4.243-3.942,33.509,33.509,0,0,1-3.341-4.918H25.038v7.021c1.352-.075,2.684-.169,4.017-.3,1.323-.15,2.6-.282,3.83-.413l-.113,3.3c-1.427.394-2.966.788-4.618,1.164-1.633.394-3.3.77-5.031,1.126-1.708.375-3.407.695-5.106.976-1.708.3-3.3.563-4.806.788l-2.591-6.195h3.754c1.277,0,2.525-.038,3.754-.113V19.841H13.212A19.811,19.811,0,0,1,9.87,27.312a29.252,29.252,0,0,1-6.157,6.045L.484,31.067a21.649,21.649,0,0,0,3.3-3.98,18.863,18.863,0,0,0,1.99-4.28,24.692,24.692,0,0,0,.976-4.881c.169-1.746.263-3.689.263-5.819,0-.695-.028-1.521-.075-2.478-.028-.976-.066-1.934-.113-2.891-.028-.948-.075-1.849-.15-2.7-.056-.873-.113-1.586-.188-2.14L14.6,4H46.138l3.154-2.1H43.435V1.031H15.052v.751H8.406V-17.7l7.171,1.727h4.28v-4.243h6.608v4.243h5.406v-4.243h6.57v4.243h5.519l1.84-1.8,5.857,2.666L50.043-13.2V1.895H49.93l4.2,3.079L50.043,7.752H13.963c0,.779.009,1.558.038,2.328s.038,1.427.038,1.952c0,1.427-.066,2.816-.188,4.167H47.415l3.379-2.478,4.693,3.229-4.28,2.891H45.575l5.256,3.041a42.028,42.028,0,0,1-4.468,1.577,38.87,38.87,0,0,1-4.731,1.051,34.447,34.447,0,0,0,6.27,1.2c2.347.225,5.087.357,8.222.375ZM43.435-12.334H37.879v3.191h5.557Zm0,6.608H37.879v3.3h5.557ZM31.871-12.334H26.465v3.191h5.406Zm0,6.608H26.465v3.3h5.406ZM20.458-12.334H15.052v3.191h5.406Zm0,6.608H15.052v3.3h5.406Zm12.5,25.568a17.47,17.47,0,0,0,5.031,4.167c1.051-.6,2.074-1.248,3.079-1.952a20.47,20.47,0,0,0,2.666-2.215Zm0,0" transform="translate(-0.484 20.219)" fill="#93c572"/>
          </g>
        </g>
      </g>
      <g id="グループ_1856" data-name="グループ 1856" transform="translate(386.911 323.997)">
        <g id="グループ_1855" data-name="グループ 1855" transform="translate(0 0)">
          <g id="グループ_1854" data-name="グループ 1854">
            <path id="パス_199" data-name="パス 199" d="M44.094,33.535V31.02H8.689v2.628H1.781v-53.8l7.471,1.915H44.732l1.915-2.027L52.954-17.3l-1.84,2.253V33.535Zm0-47.831H8.689V27.04h35.4ZM39.588.046h-28.5L9.553-3.6h13.4V-6.3H13.42L11.843-9.941H22.956v-2.666h6.57v2.666h4.055l2.928-1.99,4.243,3.079L36.885-6.3H29.527v2.7h6.533l3.229-2.14,4.167,3.191Zm-.939,25.53a34.254,34.254,0,0,0-4.393-3.642A43,43,0,0,0,29.3,19.006v6.458h-6.5l.413-7.509A38.61,38.61,0,0,1,11.28,24.788L9.253,22.235a35.989,35.989,0,0,0,7.133-4.505A37.214,37.214,0,0,0,21.867,12.4H19.69v.788H13.946V1.172l6.307,1.539H33.281l1.8-1.5,5.369,2.553-1.727,1.8v7.246H36.472l4.693,2.14a21.688,21.688,0,0,1-5.744,2.666c1.4.432,2.722.892,3.98,1.389s2.412,1.014,3.492,1.539ZM32.83,6.09H19.69V9.169H32.83Zm0,6.72V12.4H29.3v3.567c.5.131.986.253,1.464.375a14.542,14.542,0,0,1,1.464.413,8.209,8.209,0,0,0,1.464-1.877c.422-.723.788-1.408,1.089-2.065Zm0,0" transform="translate(-1.781 20.266)" fill="#93c572"/>
          </g>
        </g>
      </g>
    </g>
  </g>
</svg>
