<svg xmlns="http://www.w3.org/2000/svg" xmlns:xlink="http://www.w3.org/1999/xlink" width="1200" height="630" viewBox="0 0 1200 630">
  <defs>
    <clipPath id="clip-path">
      <path id="パス_176" data-name="パス 176" d="M103.613,111h334.5V325.638h-334.5Zm0,0" transform="translate(-103.613 -111)"/>
    </clipPath>
    <clipPath id="clip-path-2">
      <path id="パス_189" data-name="パス 189" d="M106,101.051H430.543V226.387H106Zm0,0" transform="translate(-106 -101.051)"/>
    </clipPath>
    <clipPath id="clip-path-3">
      <path id="パス_192" data-name="パス 192" d="M88,217H492.186v31.748H88Zm0,0" transform="translate(-88 -217)"/>
    </clipPath>
  </defs>
  <g id="ogp-image" transform="translate(-253 -504)">
    <rect id="長方形_1112" data-name="長方形 1112" width="1200" height="630" transform="translate(253 504)" fill="#f0f0f0"/>
    <g id="LOGO2" transform="translate(650.908 662.364)">
      <g id="グループ_1833" data-name="グループ 1833" transform="translate(31.087 19.81)" clip-path="url(#clip-path)">
        <path id="パス_175" data-name="パス 175" d="M185.091,251.7c1.781-3.5,2.745-3.609,2.668-7.062s-1.05-9.621-.7-11.752c0,0-11.55,1.727-14.513-7.334,0,0,5.071-7.886,15.158-.124,0,0,1.229.047,1.229-2.116-.008-5.53,5.67-5.219,7.186-6.191,1.268-.8,5.351-1.454,7.148.249,1.719,1.618,4.978-.233,7.762,3.088,1.758,2.1,9.893,2.077,23.924,1.8,34.688-.669,43.072,7.342,82.17-6.043,11.534-3.943,20.128-1.307,25.876,4.8,4.433-.085,14.56,1.05,13.891,13.245-.863,15.586-3.671,40.389,5.071,43.951a3.832,3.832,0,0,1-2.427-.109,6.53,6.53,0,0,0,1.828,1.524,2.762,2.762,0,0,1,1.517,2.287,3.238,3.238,0,0,0-2.388-1.159s2.442,1.229,1.439,4.651c0,0-.171-2.17-1.33-2.924a7.005,7.005,0,0,1-.257,2.481,3.619,3.619,0,0,0-.918-1.7s-1.486,3.9,2.046,3.99c0,0-3.158,2.637-4.177-4.184a2.735,2.735,0,0,0-1.462-2.046,7.377,7.377,0,0,1,.218,3.181,29.032,29.032,0,0,0-1.1-3.344c-.4-.778-.327-1.237-.054-2.909s-.187-2.971-.731-4.884-1.1-8.143-.887-16.123c.21-7.778.832-28.023-5.693-29.22,5.608,11.34,5.522,27.712-.031,40.2-4.262,9.605-.319,15.267,1.081,17.1s.622,4.884-.537,10.165c-.334,1.517-.747,3.617-1.159,6.066a13.941,13.941,0,0,0,1.867-6.129c4.278,4.06-7.4,16.216-.42,28.622,0,0,.264-14.754,5.6-18.728a20.58,20.58,0,0,0,.342,14.809,20.533,20.533,0,0,0,.342-14.809c5.343,3.974,5.6,18.728,5.6,18.728,6.992-12.405-4.69-24.562-.42-28.622.4,8.042,8.112,10.71,6.759,22.5,5.444-6.378,4.029-16.846,4.029-16.846,5.444,15.12-4.293,24.227-4.293,24.227,11.239-5.53,7.7-23.971,12.716-25.845a67.371,67.371,0,0,0,.373,15.12,30.839,30.839,0,0,0,1.727-19.778c6.23,6.7,2.823,17.733,2.823,17.733,11.985-15.905,21.357-17.748,21.357-17.748s-10.1,6-17.647,19.911c0,0,4.978-4.122,8.8-5.615a24.152,24.152,0,0,0-6.86,12.452c4.138-8.579,19.631-19.514,19.631-19.514a34.384,34.384,0,0,0-10.158,15.33c7.062-11.277,16.387-15.485,16.387-15.485a32.7,32.7,0,0,0-9.839,15.851c8.167-14.334,20.051-19.67,20.051-19.67-11.837,9.94-12.3,22.547-12.3,22.547,2.878-10.57,12.514-16.792,12.514-16.792-9.006,9.839-7.544,17.111-7.544,17.111-.054-4.5,3.819-8.688,3.819-8.688-.887,3.508,1,8.058,1,8.058a40.542,40.542,0,0,1,6.463-10.173,167.852,167.852,0,0,0,5.133-84.822c-20.393-14.342-65.207-52.141-70.364-55.058-5.911-3.344-7.809,1.9-15.952-7.249s-34.424-35.964-44.356-44.441-11.884-6.743-15.789-5.74-7.809,7.023-3.407,14.1,1.011,13.836-3.236,19.747a9.719,9.719,0,0,0-.389,11.208c8.034,17.951,42.512,33.84,42.512,33.84,5.934,2.162,15.493,5.538,3.4,3.687-17.772-2.73-32.191-12.9-44.519-22.2-13.665-10.313-19.631-2.839-19.747,1.9S260.76,180.922,251,174.4s-24.072-21.917-24.072-21.917c-6.619-6-11.558-12.405-18.876-5.172-2.691,2.66-5.577,6.751-4.332,9.52,1.727,3.85,2.458,6.977-1.789,9.2s-17.57,4.184-16.955,13.829,19.078,18.736,19.078,18.736c-29.407-1.7-22.726-28.373-47.2-8.8-13.463,10.764-36.695,23.994-49.053,30.768l-.008.008q-.583,2.543-1.081,5.118a.024.024,0,0,1,.016-.008,167.814,167.814,0,0,0,5.265,84.138,40.763,40.763,0,0,1,6.455,10.173s1.882-4.55,1-8.058c0,0,3.873,4.184,3.819,8.688,0,0,1.47-7.272-7.537-17.111,0,0,9.629,6.222,12.514,16.792,0,0-.474-12.608-12.3-22.547,0,0,11.884,5.335,20.051,19.67a32.749,32.749,0,0,0-9.846-15.851s9.325,4.208,16.387,15.485a34.384,34.384,0,0,0-10.157-15.33s15.5,10.935,19.631,19.514a24.174,24.174,0,0,0-6.852-12.452c3.827,1.493,8.8,5.615,8.8,5.615-7.544-13.906-17.655-19.911-17.655-19.911s9.372,1.843,21.357,17.748c0,0-3.4-11.036,2.831-17.733a30.839,30.839,0,0,0,1.727,19.778,67.673,67.673,0,0,0,.366-15.12c5.017,1.874,1.486,20.315,12.716,25.845,0,0-9.73-9.108-4.285-24.227,0,0-1.415,10.469,4.029,16.846-1.361-11.791,6.346-14.458,6.751-22.5,4.278,4.06-7.412,16.216-.42,28.622,0,0,.264-14.754,5.608-18.728,0,0-3.243,7.949.778,15.734,4.029-7.785.786-15.734.786-15.734,5.335,3.974,5.6,18.728,5.6,18.728,6.992-12.405-4.7-24.562-.42-28.622.4,8.042,8.112,10.71,6.751,22.5,5.444-6.378,4.037-16.846,4.037-16.846,5.444,15.12-4.293,24.227-4.293,24.227,11.231-5.53,7.7-23.971,12.716-25.845a67.676,67.676,0,0,0,.366,15.12,30.779,30.779,0,0,0,1.727-19.778c6.23,6.7,2.831,17.733,2.831,17.733a68.151,68.151,0,0,1,11.277-12.009,34.971,34.971,0,0,0-2.955-10.025,8.052,8.052,0,0,1-3.912-3.072,7.225,7.225,0,0,0-4.667-3.29,10.8,10.8,0,0,1-4.425-3.43c-.513-.941-1.532-1.322-2.45-2.232s-.949.21-1.268-6.315-4.612-12.887-8.446-12.537-6.58-.21-8.711.436-3.049-.832-3.749-1.8-1.322-.459-2.325-.653S183.31,255.205,185.091,251.7Zm0,0" transform="translate(-103.567 -110.363)" fill="#93c572" fill-rule="evenodd"/>
      </g>
      <path id="パス_177" data-name="パス 177" d="M244.4,200.273c-27.9,27.618-49.528,1.96-65.744,9.706,0,0-.265-2.45,2.567-8.625s.109-14.233.109-14.233.537,9.434-2.162,13.961-3.29,7.334-2.053,14.451c.918,5.234-.474,9.909-1.485,13.261a26.877,26.877,0,0,1,3.477-2.03,29.164,29.164,0,0,0-4.153,4.4c-.062.249-.117.49-.156.708a29.256,29.256,0,0,0-.249,3.111,46.2,46.2,0,0,1,14.762-12.04c-11.83,9.94-12.3,22.547-12.3,22.547,2.878-10.57,12.506-16.792,12.506-16.792-9.006,9.839-7.537,17.111-7.537,17.111-.054-4.5,3.819-8.688,3.819-8.688-.887,3.508,1,8.058,1,8.058a40.239,40.239,0,0,1,6-9.629,40.2,40.2,0,0,0-4.978-4.083,17.926,17.926,0,0,1,5.794,3.134,32,32,0,0,1,3.912-3.811,26.924,26.924,0,0,0-3.033,4.5c.576.467,1.174,1,1.789,1.587a53.861,53.861,0,0,1,3.414-4.542,31.823,31.823,0,0,0-6.067-7.669A30.212,30.212,0,0,1,201,230.862a30.212,30.212,0,0,1,7.365-6.191,31.817,31.817,0,0,0-6.067,7.669,52.245,52.245,0,0,1,3.422,4.542c.607-.591,1.205-1.12,1.789-1.587a27.471,27.471,0,0,0-3.041-4.5,32.338,32.338,0,0,1,3.92,3.811,17.856,17.856,0,0,1,5.786-3.134,40.2,40.2,0,0,0-4.978,4.083,40.24,40.24,0,0,1,6,9.629s1.882-4.55,1-8.058c0,0,3.873,4.184,3.819,8.688,0,0,1.47-7.272-7.536-17.111,0,0,9.629,6.222,12.514,16.792,0,0-.474-12.607-12.3-22.547,0,0,11.884,5.335,20.051,19.669a32.749,32.749,0,0,0-9.846-15.851s9.325,4.208,16.387,15.485a34.408,34.408,0,0,0-10.15-15.33s10.406,7.35,16.442,14.723l.63-.98s.117-.179.311-.513a22.757,22.757,0,0,0-4.612-6.168,31.012,31.012,0,0,1,6.066,3.531c.218-.436.451-.91.692-1.408-7.2-11.425-15.61-16.418-15.61-16.418s7.272,1.431,17.189,12.639a23.016,23.016,0,0,0,1.524-7.085s1.237-3.259-1.268-8.975-2.7-9.52-3.189-13.455-6.308-12.4-12.623-8.462C234.687,194.346,240.544,193.265,244.4,200.273Zm0,0" transform="translate(-2.223 -15.75)" fill="#93c572" fill-rule="evenodd"/>
      <path id="パス_178" data-name="パス 178" d="M218.32,227.86c1.229,4.13,1.555,10.974,4.348,16.286a6.6,6.6,0,0,0,1.283-1.781,23.44,23.44,0,0,1-.373-13.774c-.233-2.007-.412-3.383-.412-3.383,6.79-5.5-2.045-19.125,1.47-21.388,2.59-1.672,8.719-10.088,8.229-16.722-1.065,4.674-6.58,12.926-8.968,14.225-6.883,3.741,4.013,17.577-2.24,22.026A16.43,16.43,0,0,0,218.32,227.86Zm0,0" transform="translate(41.155 -15.773)" fill="#93c572" fill-rule="evenodd"/>
      <path id="パス_179" data-name="パス 179" d="M217.623,217.243a59.921,59.921,0,0,0,.6-7.684c-.661,1.314-1.322,2.691-1.952,4.075A27.753,27.753,0,0,0,217.623,217.243Zm0,0" transform="translate(39.123 6.487)" fill="#93c572" fill-rule="evenodd"/>
      <path id="パス_180" data-name="パス 180" d="M170.315,214.5c.016-1.011.016-2.248-.023-3.64a24.239,24.239,0,0,0-6.44,12.048A34.485,34.485,0,0,1,170.315,214.5Zm0,0" transform="translate(-12.826 7.776)" fill="#93c572" fill-rule="evenodd"/>
      <path id="パス_181" data-name="パス 181" d="M162.875,219.136a43.352,43.352,0,0,1,8.376-5.437c-.062-1.8-.187-3.819-.428-5.934A60.741,60.741,0,0,0,162.875,219.136Zm0,0" transform="translate(-13.794 4.71)" fill="#93c572" fill-rule="evenodd"/>
      <path id="パス_182" data-name="パス 182" d="M172.13,210.148a34.629,34.629,0,0,0-2.209,3.547c-.047.824-.093,1.633-.148,2.372.731-.972,1.478-1.874,2.217-2.714C172.091,212.085,172.146,210.965,172.13,210.148Zm0,0" transform="translate(-6.957 7.072)" fill="#93c572" fill-rule="evenodd"/>
      <path id="パス_183" data-name="パス 183" d="M170.173,215.328c.653-.56,1.291-1.089,1.905-1.587-.389-2.427-1.26-5.833-1.89-8.936-.171.148-.35.3-.537.451.117,1.338.311,2.956.614,4.838C170.267,210.093,170.259,212.466,170.173,215.328Zm0,0" transform="translate(-7.077 1.776)" fill="#93c572" fill-rule="evenodd"/>
      <path id="パス_184" data-name="パス 184" d="M169.644,206.074c.14-.078.28-.156.412-.226-.21-1.167-.381-2.255-.459-3.212A27.24,27.24,0,0,0,169.644,206.074Zm0,0" transform="translate(-7.162 -0.373)" fill="#93c572" fill-rule="evenodd"/>
      <path id="パス_185" data-name="パス 185" d="M188.552,211.2a21.539,21.539,0,0,0-1.439,5.444c.482.6.957,1.244,1.439,1.929.482-.684.964-1.33,1.439-1.929A21.536,21.536,0,0,0,188.552,211.2Zm0,0" transform="translate(10.227 8.117)" fill="#93c572" fill-rule="evenodd"/>
      <path id="パス_186" data-name="パス 186" d="M187.087,213.7c-.467-.568-.972-1.151-1.509-1.727a27.993,27.993,0,0,0-2.691,9.582A64.555,64.555,0,0,1,187.087,213.7Zm0,0" transform="translate(6.039 8.876)" fill="#93c572" fill-rule="evenodd"/>
      <path id="パス_187" data-name="パス 187" d="M190.676,213.7a64.553,64.553,0,0,1,4.2,7.855,27.86,27.86,0,0,0-2.683-9.582C191.648,212.544,191.142,213.128,190.676,213.7Zm0,0" transform="translate(13.758 8.876)" fill="#93c572" fill-rule="evenodd"/>
      <g id="グループ_1834" data-name="グループ 1834" transform="translate(35.839 0)" clip-path="url(#clip-path-2)">
        <path id="パス_188" data-name="パス 188" d="M106.777,222.848c18.97-7.2,79.433-65.293,92.46-76.376,12.382-10.539,20.8-1.563,25.658,2.847s17.912,13.16,17.912,13.16l-10.1-10.928s2.014-1.509,23.877-21.917,29.01-19.071,34.813-18.067,39.059,32,68.738,57.43c27.416,23.5,63.784,51.931,69.166,56.131a167.24,167.24,0,0,0-322.521-2.279Zm0,0" transform="translate(-105.23 -101.051)" fill="#93c572" fill-rule="evenodd"/>
      </g>
      <path id="パス_190" data-name="パス 190" d="M298.008,234.919a109.684,109.684,0,0,0-28.559-5.9c-2.007-.156-2.007-3.344,0-3.1a94.067,94.067,0,0,1,29.36,7.241C299.773,233.566,299.05,235.316,298.008,234.919Zm0,0" transform="translate(90.335 22.69)" fill="#93c572"/>
      <g id="グループ_1835" data-name="グループ 1835" transform="translate(0 230.862)" clip-path="url(#clip-path-3)">
        <path id="パス_191" data-name="パス 191" d="M94.69,218.992c6.339,9.551,17.492,14.567,28.318,17.515,12.833,3.5,26.148,4.457,39.386,4.379,27.431-.241,55.026-4.3,82.3-7.163,55.75-5.818,111.818-11.946,167.965-11.145,12.436.233,25.028.552,37.387,2.069,28.069,3.982,38.336,12.5,38.981,13.051s1.283,1.12,1.843,1.672a.96.96,0,0,1-.964,1.594c-11.309-3.9-22.454-7.56-34.33-9.473-12.911-2.069-25.985-2.465-39.067-2.707-28.715-.56-57.508.793-86.145,3.025-28.4,2.232-56.714,5.413-84.947,8.594-27.758,3.111-55.835,7.49-83.827,7.4-24.383,0-57.834-3.1-72.433-25.635C86.913,218.75,92.45,215.647,94.69,218.992Zm0,0" transform="translate(-87.372 -216.448)" fill="#93c572"/>
      </g>
      <g id="グループ_1838" data-name="グループ 1838" transform="translate(38.208 268.193)">
        <g id="グループ_1837" data-name="グループ 1837" transform="translate(0 0)">
          <g id="グループ_1836" data-name="グループ 1836">
            <path id="パス_193" data-name="パス 193" d="M31.173,24.548V21.966H9.582v2.582H3.547V-15.086l6.5,1.68h3.08A16.008,16.008,0,0,0,14-14.993c.311-.6.607-1.221.9-1.867.288-.661.544-1.291.778-1.9.226-.622.4-1.167.529-1.649l8.96,1.4q-1.4,1.283-3.422,2.831a46.945,46.945,0,0,1-4.013,2.769H31.608l1.773-1.773,5.569,2.458L37.3-10.855v35.4Zm0-34.128H9.582v6.44H31.173Zm0,10.266H9.582v6.44H31.173Zm0,10.266H9.582v7.124H31.173Zm0,0" transform="translate(-3.547 20.406)" fill="#93c572"/>
          </g>
        </g>
      </g>
      <g id="グループ_1841" data-name="グループ 1841" transform="translate(80.456 268.566)">
        <g id="グループ_1840" data-name="グループ 1840" transform="translate(0 0)">
          <g id="グループ_1839" data-name="グループ 1839" transform="translate(0 0)">
            <path id="パス_194" data-name="パス 194" d="M37.569-9.8a24.426,24.426,0,0,0-1.307-3.8,14.338,14.338,0,0,0-1.9-3.3l2.3-1.369a24.272,24.272,0,0,1,3.2,2.427,36.708,36.708,0,0,1,2.769,2.707Zm7.5,19.755a10.068,10.068,0,0,0-1.929.187,15.927,15.927,0,0,0-1.742.591,4.279,4.279,0,0,0-1.587,1.058,22.985,22.985,0,0,1-4.262-5.631,30.477,30.477,0,0,1-2.862-7.342,21.436,21.436,0,0,1-4.231,8.058,25.255,25.255,0,0,1-8.524,6.284l-2.613-2.333a23.18,23.18,0,0,0,4.418-3.3,20,20,0,0,0,3.111-3.8A20.78,20.78,0,0,0,26.836-.495a27.182,27.182,0,0,0,1.089-4.542H23.134A28.4,28.4,0,0,1,16.507,6.007a37.413,37.413,0,0,1-12.1,7.933l-2.4-2.551a31.068,31.068,0,0,0,11.6-9.426,28.452,28.452,0,0,0,5.2-13.626H12.867L12-10.388a25.439,25.439,0,0,1,3.018,1.556,17.231,17.231,0,0,1,2.458,1.711L13.489-2.175a19.463,19.463,0,0,0-3.018-6c-.42.56-.832,1.1-1.244,1.618-.4.5-.809.988-1.244,1.462A28.052,28.052,0,0,1,11.032-2.89a23.648,23.648,0,0,1,2.8,2.582l-4.7,4.667A17.9,17.9,0,0,0,7.889.314a25.5,25.5,0,0,0-1.8-3.391c-.793.793-1.6,1.556-2.427,2.3L.827-2.548A33.308,33.308,0,0,0,6.738-11.01a34.877,34.877,0,0,0,3.049-9.209l6.627,1.556c-.249.56-.5,1.136-.747,1.711s-.513,1.167-.778,1.742h4.6l1.338-1.462,5.227,2.4-1.338,1.8A34.925,34.925,0,0,1,24.129-8.8H28.2c.039-.91.062-1.836.062-2.769.016-.933.031-1.836.031-2.707,0-1.12-.016-2.154-.031-3.111v-2.489h5.849c0,.544-.016,1.229-.031,2.053s-.054,1.742-.093,2.738c-.023.98-.047,2.007-.062,3.08,0,1.081-.031,2.147-.093,3.2h4.418l2.862-2.147L45.191-7.93l-3.64,2.893H34.4a22.932,22.932,0,0,0,4.915,7.56,26.07,26.07,0,0,0,7.28,5.227Zm-5.444,14.5c-.3-.809-.646-1.68-1.058-2.613-.42-.918-.871-1.82-1.369-2.738-.482-.91-1-1.789-1.556-2.644a21.52,21.52,0,0,0-1.68-2.24l2.893-1.462A26.475,26.475,0,0,1,41.644,16.3a37.347,37.347,0,0,1,4.138,4.324Zm-12.6-.249a20.936,20.936,0,0,0-.311-2.4,25.7,25.7,0,0,0-.591-2.644c-.233-.91-.5-1.812-.809-2.707q-.467-1.365-.933-2.427L27.4,12.976a23.152,23.152,0,0,1,1.8,1.991c.622.731,1.2,1.478,1.742,2.24s1.042,1.54,1.524,2.3a17.359,17.359,0,0,1,1.213,2.147Zm-11.2.062c.078-.583.132-1.182.156-1.8.039-.607.062-1.213.062-1.836a35.138,35.138,0,0,0-.187-3.671c-.109-1.182-.241-2.217-.4-3.111l3.2-.684A19.377,19.377,0,0,1,19.8,15.309q.583,1.19,1.12,2.427c.35.809.669,1.61.964,2.4a18.664,18.664,0,0,1,.653,2.209ZM.672,19.7a19.532,19.532,0,0,0,2.52-1.307,25.918,25.918,0,0,0,2.427-1.742,22.21,22.21,0,0,0,2.116-1.96A16.557,16.557,0,0,0,9.352,12.7L12.432,14q-.443,1.342-1.027,2.8A24.912,24.912,0,0,1,10.1,19.665a25.081,25.081,0,0,1-1.649,2.613,11.741,11.741,0,0,1-2.022,2.209Zm0,0" transform="translate(-0.672 20.219)" fill="#93c572"/>
          </g>
        </g>
      </g>
      <g id="グループ_1844" data-name="グループ 1844" transform="translate(129.641 274.228)">
        <g id="グループ_1843" data-name="グループ 1843" transform="translate(0 0)">
          <g id="グループ_1842" data-name="グループ 1842">
            <path id="パス_195" data-name="パス 195" d="M18.859,15.726a29.136,29.136,0,0,0,5.911-1.182,17.756,17.756,0,0,0,5.6-2.893A15.4,15.4,0,0,0,34.507,6.8,14.422,14.422,0,0,0,36.156-.327a14.756,14.756,0,0,0-1.027-5.662,11.321,11.321,0,0,0-2.769-4.169,12.3,12.3,0,0,0-4.2-2.582,14.7,14.7,0,0,0-5.32-.933,18.432,18.432,0,0,0-3.64.342l4.915,1.773c.016.187.031.389.031.591v.653A24.7,24.7,0,0,1,23.432-4.9a54.5,54.5,0,0,1-1.8,6.253A54.024,54.024,0,0,1,19.045,7.42a32.47,32.47,0,0,1-2.893,4.915,10.127,10.127,0,0,1-2.675,2.458,5.507,5.507,0,0,1-2.862.84,6.174,6.174,0,0,1-2.924-.9A11.683,11.683,0,0,1,4.61,12.18,14.776,14.776,0,0,1,2.215,8.2a13.7,13.7,0,0,1-.933-5.133A17.063,17.063,0,0,1,1.9-1.384,21.377,21.377,0,0,1,3.739-6.02a22.934,22.934,0,0,1,3.018-4.324,19.923,19.923,0,0,1,4.293-3.64,21.913,21.913,0,0,1,5.507-2.458,23.287,23.287,0,0,1,6.782-.933A22.67,22.67,0,0,1,31.085-16.1a18.4,18.4,0,0,1,6.067,3.578,16.129,16.129,0,0,1,4.013,5.538A16.944,16.944,0,0,1,42.627.109a17.973,17.973,0,0,1-1.369,7,16.612,16.612,0,0,1-4.107,5.755,22.158,22.158,0,0,1-6.875,4.169,35.883,35.883,0,0,1-9.582,2.147Zm-.747-28.839a16.654,16.654,0,0,0-5.755,2.675A15.991,15.991,0,0,0,8.623-6.549,15.631,15.631,0,0,0,6.6-2.131,16.452,16.452,0,0,0,6.01,2.007a8.73,8.73,0,0,0,.467,2.955A10.68,10.68,0,0,0,7.628,7.233a5.85,5.85,0,0,0,1.4,1.431,2.38,2.38,0,0,0,1.213.5,1.744,1.744,0,0,0,1.338-.778,25.27,25.27,0,0,0,2.116-3.515A46.806,46.806,0,0,0,15.841-.14a41.59,41.59,0,0,0,1.68-5.693,25.221,25.221,0,0,0,.684-5.631c0-.249-.016-.513-.031-.809S18.128-12.841,18.112-13.113Zm0,0" transform="translate(-1.281 17.375)" fill="#93c572"/>
          </g>
        </g>
      </g>
      <g id="グループ_1847" data-name="グループ 1847" transform="translate(174.045 268.815)">
        <g id="グループ_1846" data-name="グループ 1846" transform="translate(0 0)">
          <g id="グループ_1845" data-name="グループ 1845">
            <path id="パス_196" data-name="パス 196" d="M33.99,8.341V7.408H13.022v1H7.515V-10.605l6,1.4H20.55v-3.173H3.471L2.1-15.956H20.55v-4.138h5.818v4.138h11.7l3.018-2.116,4.075,2.955-3.578,2.738H26.368v3.173h8.058l1.867-1.68,4.7,2.271L39.621-7.09V8.341Zm7.342,13.066a15.017,15.017,0,0,0-1.307-2.831,27.841,27.841,0,0,0-1.867-2.769,27.192,27.192,0,0,0-2.084-2.52,27.264,27.264,0,0,0-1.991-1.96l2.458-2.022a29.682,29.682,0,0,1,5.507,3.2,26.862,26.862,0,0,1,4.6,4.107ZM27.084,16.99a16.733,16.733,0,0,0-3.142-3.7,23.72,23.72,0,0,0-3.92-2.831l1.929-2.4a41.6,41.6,0,0,1,4.76,1.587,24.616,24.616,0,0,1,4.324,2.147Zm8.151-3.2c-.023.311-.031.607-.031.871V15.4a10.77,10.77,0,0,0,.187,2.209,9.191,9.191,0,0,0,.4,1.431,3.236,3.236,0,0,0,.56.871,3.662,3.662,0,0,1,.529.716c-.21.288-.482.622-.809,1a4.527,4.527,0,0,1-1.8,1.089,18.056,18.056,0,0,1-3.609.84,45.259,45.259,0,0,1-6.222.342q-2.683,0-4.791-.187a12.8,12.8,0,0,1-3.578-.716,4.847,4.847,0,0,1-2.24-1.524,4.173,4.173,0,0,1-.747-2.613V18.7l.093-9.333h5.6l-.093,7.622a1.343,1.343,0,0,0,.5,1.12,3.711,3.711,0,0,0,1.338.56,9.068,9.068,0,0,0,1.836.218c.684.023,1.4.031,2.147.031.6,0,1.213-.008,1.836-.031a18.2,18.2,0,0,0,1.9-.218,4.248,4.248,0,0,0,1.9-.622,2.449,2.449,0,0,0,.84-1.089,4.349,4.349,0,0,0,.311-1.556,16.828,16.828,0,0,1,.28-2.053ZM.453,17.674a21.645,21.645,0,0,0,4.6-3.08A15.235,15.235,0,0,0,8.666,9.928l3.018,1.462A35.071,35.071,0,0,1,9.32,17.519,21.255,21.255,0,0,1,5.835,22.59ZM33.99-6H26.275v3.422H33.99Zm0,6.6H26.275V4.172H33.99ZM20.644-6H13.022v3.422h7.622Zm0,6.6H13.022V4.172h7.622Zm0,0" transform="translate(-0.453 20.094)" fill="#93c572"/>
          </g>
        </g>
      </g>
      <g id="グループ_1850" data-name="グループ 1850" transform="translate(223.044 271.989)">
        <g id="グループ_1849" data-name="グループ 1849" transform="translate(0 0)">
          <g id="グループ_1848" data-name="グループ 1848" transform="translate(0 0)">
            <path id="パス_197" data-name="パス 197" d="M42.781,15.317q-1.622-1.517-3.3-2.862Q37.8,11.09,36.03,9.9A21.528,21.528,0,0,1,32.7,14.446a21.614,21.614,0,0,1-4.2,3.329,25.045,25.045,0,0,1-4.853,2.24,35.457,35.457,0,0,1-5.382,1.4l-1.991-3.08A27.183,27.183,0,0,0,20.537,16.9a20.952,20.952,0,0,0,3.982-2.3,21.206,21.206,0,0,0,3.515-3.3A19.064,19.064,0,0,0,30.8,6.917a34.683,34.683,0,0,0-5.662-1.991,34.334,34.334,0,0,0-6-1.027c-.233.482-.451.957-.653,1.431s-.436.98-.684,1.493a22.662,22.662,0,0,1-2.644,4.355A17.374,17.374,0,0,1,12.293,14.1a10.835,10.835,0,0,1-2.955,1.649,8.146,8.146,0,0,1-2.8.529,5.624,5.624,0,0,1-4.013-1.493A5.237,5.237,0,0,1,.969,10.806,8.612,8.612,0,0,1,1.9,6.979,10.892,10.892,0,0,1,4.733,3.5,16.329,16.329,0,0,1,9.337.913,19.32,19.32,0,0,1,15.591-.269q1.213-2.392,2.333-4.76c.747-1.571,1.416-2.994,2.022-4.262q1.05-2.263,2.022-4.262c-.832.42-1.7.8-2.582,1.151-.77.311-1.641.614-2.613.9a19.7,19.7,0,0,1-2.955.653l-3.08-4.822c.2,0,.412.016.622.031h.591a32.493,32.493,0,0,0,4.324-.28,37.054,37.054,0,0,0,3.764-.684,35.286,35.286,0,0,0,3.609-.933l1.213-.964,5.662,3.173c-.21.21-.4.42-.591.622a10.667,10.667,0,0,0-.964,1.089q-1.435,2.03-2.582,3.858Q25.231-7.95,24.239-6.274c-.646,1.12-1.244,2.224-1.8,3.3C21.89-1.918,21.377-.86,20.879.2a59.081,59.081,0,0,1,5.911.84q2.893.56,5.6,1.369a35.885,35.885,0,0,0,.84-8.12l6.191,1.4q-.093,2.555-.373,4.76a27.714,27.714,0,0,1-.871,4.231,39.872,39.872,0,0,1,7.5,4.6ZM13.475,3.806A14.76,14.76,0,0,0,9.493,5.051a10.038,10.038,0,0,0-2.52,1.742A5.688,5.688,0,0,0,5.666,8.659a4.415,4.415,0,0,0-.342,1.556c0,.708.327,1.058,1,1.058a3.689,3.689,0,0,0,.933-.187,4.916,4.916,0,0,0,1.587-.933,15.131,15.131,0,0,0,2.147-2.24A23.058,23.058,0,0,0,13.475,3.806Zm0,0" transform="translate(-0.969 18.5)" fill="#93c572"/>
          </g>
        </g>
      </g>
      <g id="グループ_1853" data-name="グループ 1853" transform="translate(270.052 268.566)">
        <g id="グループ_1852" data-name="グループ 1852" transform="translate(0 0)">
          <g id="グループ_1851" data-name="グループ 1851" transform="translate(0 0)">
            <path id="パス_198" data-name="パス 198" d="M38.19,7.905H14.484l-1.338-3.08H35.452l2.582-1.587,3.422,2.489Zm7.56,13.533a12.66,12.66,0,0,0-1.991.747c-.583.264-1.182.576-1.8.933a7.268,7.268,0,0,0-1.649,1.338,27.633,27.633,0,0,1-5.631-1.649,20.409,20.409,0,0,1-4.449-2.489,19.735,19.735,0,0,1-3.515-3.267,27.766,27.766,0,0,1-2.769-4.075H20.831v5.818c1.12-.062,2.224-.14,3.329-.249,1.1-.124,2.154-.233,3.173-.342l-.093,2.738c-1.182.327-2.458.653-3.827.964-1.353.327-2.738.638-4.169.933-1.416.311-2.823.576-4.231.809-1.416.249-2.738.467-3.982.653L8.884,19.167H12c1.058,0,2.092-.031,3.111-.093v-6.1H11.031a16.416,16.416,0,0,1-2.769,6.191,24.239,24.239,0,0,1-5.1,5.009l-2.675-1.9a17.939,17.939,0,0,0,2.738-3.3,15.63,15.63,0,0,0,1.649-3.547,20.461,20.461,0,0,0,.809-4.044c.14-1.447.218-3.057.218-4.822,0-.576-.023-1.26-.062-2.053-.023-.809-.054-1.6-.093-2.4C5.719,1.333,5.68.586,5.618-.121c-.047-.723-.093-1.314-.156-1.773l6.72,1.742H38.315l2.613-1.742H36.075V-2.61H12.555v.622H7.049V-18.134L12.991-16.7h3.547v-3.515h5.475V-16.7h4.48v-3.515h5.444V-16.7H36.51L38.035-18.2l4.853,2.209L41.55-14.4V-1.895h-.093L44.941.656l-3.391,2.3h-29.9c0,.646.008,1.291.031,1.929s.031,1.182.031,1.618c0,1.182-.054,2.333-.156,3.453H39.372l2.8-2.053,3.889,2.675-3.547,2.4H37.848L42.2,15.5A34.826,34.826,0,0,1,38.5,16.8a32.208,32.208,0,0,1-3.92.871,28.544,28.544,0,0,0,5.2,1c1.944.187,4.215.3,6.813.311ZM36.075-13.686h-4.6v2.644h4.6Zm0,5.475h-4.6v2.738h4.6Zm-9.582-5.475h-4.48v2.644h4.48Zm0,5.475h-4.48v2.738h4.48Zm-9.458-5.475h-4.48v2.644h4.48Zm0,5.475h-4.48v2.738h4.48Zm10.36,21.186a14.476,14.476,0,0,0,4.169,3.453c.871-.5,1.719-1.034,2.551-1.618a16.962,16.962,0,0,0,2.209-1.836Zm0,0" transform="translate(-0.484 20.219)" fill="#93c572"/>
          </g>
        </g>
      </g>
      <g id="グループ_1856" data-name="グループ 1856" transform="translate(320.606 268.473)">
        <g id="グループ_1855" data-name="グループ 1855" transform="translate(0 0)">
          <g id="グループ_1854" data-name="グループ 1854">
            <path id="パス_199" data-name="パス 199" d="M36.843,24.315V22.231H7.506v2.178H1.781V-20.172l6.191,1.587h29.4l1.587-1.68,5.227,2.458L42.66-15.941V24.315Zm0-39.635H7.506V18.933H36.843ZM33.109-3.435H9.5L8.221-6.453H19.327v-2.24h-7.9L10.119-11.71h9.209v-2.209h5.444v2.209h3.36l2.427-1.649,3.515,2.551-3.2,2.116h-6.1v2.24h5.413L32.86-8.226l3.453,2.644ZM32.332,17.72a28.383,28.383,0,0,0-3.64-3.018,35.634,35.634,0,0,0-4.107-2.427v5.351H19.2l.342-6.222a31.994,31.994,0,0,1-9.893,5.662l-1.68-2.115a29.821,29.821,0,0,0,5.911-3.733A30.837,30.837,0,0,0,18.425,6.8h-1.8v.653h-4.76V-2.5l5.227,1.276h10.8l1.493-1.244L33.825-.355,32.394,1.138v6H30.527l3.889,1.773a17.971,17.971,0,0,1-4.76,2.209c1.159.358,2.255.739,3.3,1.151s2,.84,2.893,1.276ZM27.51,1.574H16.621V4.125H27.51Zm0,5.569V6.8H24.585V9.756c.412.109.817.21,1.213.311a12.05,12.05,0,0,1,1.213.342,6.8,6.8,0,0,0,1.213-1.556c.35-.6.653-1.167.9-1.711Zm0,0" transform="translate(-1.781 20.266)" fill="#93c572"/>
          </g>
        </g>
      </g>
    </g>
  </g>
</svg>
